<?xml version="1.0" encoding="UTF-8"?>
<svg id="uuid-dce675b7-2919-49f1-b47e-62c7d95c05e0" data-name="Layer 2" xmlns="http://www.w3.org/2000/svg" viewBox="0 0 307.88 333.54">
  <g id="uuid-0d77699b-2b74-4105-a018-7f1e842aa979" data-name="Layer 2 copy">
    <path d="m11.19,333.54v-101.32c0-26.65,5.37-50.11,16.12-70.38,10.75-20.26,26.56-34.41,47.46-42.45L0,0h116.71l68.35,131.99c5.67-4.01,0,0,2.09-8.76,2.08-8.76,3.13-20.26,3.13-34.5V0h84.62v95.84c0,26.29-5.23,49.48-15.67,69.55-10.45,20.08-13.73,24.41-29.64,33.9l78.3,134.24h-116.26l-72.45-129.8c-6.27,3.65,2.24-9.12,0,0-2.24,9.13-3.36,21-3.36,35.6v94.2H11.19Z"/>
  </g>
</svg>