<?xml version="1.0" encoding="UTF-8"?>
<svg id="uuid-9bbca0d0-2c70-4dd1-8fb0-2d0361ec7333" data-name="Layer 2" xmlns="http://www.w3.org/2000/svg" viewBox="0 0 320.12 25.85">
  <defs>
    <style>
      .uuid-1a7beb96-668a-4459-9b95-079c62ae0597 {
        fill: #ee3b23;
      }
    </style>
  </defs>
  <g id="uuid-1bb8b0c9-4b0e-49bb-b8ea-1bfa62cc2a40" data-name="Layer 2 copy">
    <g>
      <path class="uuid-1a7beb96-668a-4459-9b95-079c62ae0597" d="m8.67,20.18v-9.14c0-.85-.15-1.47-.46-1.86-.31-.39-.76-.59-1.35-.59H1.6v-2.5h5.75c2.76,0,4.14,1.52,4.14,4.57v9.51h-2.83Zm-7.06,0v-8.29h2.83v8.29H1.6Z"/>
      <path class="uuid-1a7beb96-668a-4459-9b95-079c62ae0597" d="m14.79,20.18l-1.27-14.08h2.8l.59,6.47.05-.02c.42-.14.75-.33.98-.56s.4-.57.51-1.01c.11-.44.2-1.04.26-1.81l.26-3.06h2.83l-.28,3.3c-.09,1.07-.27,1.95-.53,2.65-.26.7-.67,1.27-1.22,1.72-.56.45-1.33.83-2.32,1.14l-.28.09.24,2.66h1.04c1.21,0,2.15-.2,2.83-.61.67-.41,1.17-1.06,1.5-1.97.32-.9.54-2.09.67-3.57l.42-5.42h2.83l-.45,5.75c-.09,1.16-.28,2.25-.56,3.26-.28,1.01-.71,1.9-1.27,2.66-.57.76-1.31,1.35-2.23,1.78s-2.06.64-3.43.64h-3.93Z"/>
      <path class="uuid-1a7beb96-668a-4459-9b95-079c62ae0597" d="m33.81,20.18v-9.14c0-.85-.15-1.47-.45-1.86-.3-.39-.75-.59-1.37-.59h-4.71v-2.5h5.2c2.76,0,4.14,1.52,4.14,4.57v9.51h-2.83Z"/>
      <path class="uuid-1a7beb96-668a-4459-9b95-079c62ae0597" d="m43.54,20.18v-11.58h-5.18v-2.5h9.89v2.5h-1.88v11.58h-2.83Z"/>
      <path class="uuid-1a7beb96-668a-4459-9b95-079c62ae0597" d="m56.46,5.84c.91,0,1.64.22,2.18.66.54.44.93,1.05,1.17,1.82.24.78.35,1.69.35,2.74v9.11h-5.37v-2.52h2.54v-6.26c0-1.02-.13-1.77-.39-2.25-.26-.48-.7-.72-1.33-.72-.67,0-1.2.32-1.57.97-.37.64-.64,1.79-.81,3.44l-.8,7.35h-2.83l1.01-9.42-1.01-4.66h2.83l.4,2.07h.12c.33-.64.75-1.19,1.27-1.65.52-.46,1.26-.68,2.24-.68Z"/>
      <path class="uuid-1a7beb96-668a-4459-9b95-079c62ae0597" d="m62.11,20.18v-2.52h5.53v-6.59c0-.89-.16-1.53-.47-1.91-.31-.38-.78-.56-1.39-.56h-3.67v-2.5h4.21c1.35,0,2.38.38,3.08,1.13.71.75,1.06,1.91,1.06,3.46v6.97h1.65v2.52h-10.01Z"/>
      <path class="uuid-1a7beb96-668a-4459-9b95-079c62ae0597" d="m109.98,20.18v-9.14c0-.85-.15-1.47-.46-1.86-.31-.39-.76-.59-1.35-.59h-5.25v-2.5h5.75c2.76,0,4.14,1.52,4.14,4.57v9.51h-2.83Zm-7.06,0v-8.29h2.83v8.29h-2.83Z"/>
      <path class="uuid-1a7beb96-668a-4459-9b95-079c62ae0597" d="m114.92,20.18v-2.52h3.27v-7.51c0-.52-.08-.91-.25-1.17-.17-.26-.45-.39-.86-.39h-1.22v-2.5h2.17c1.99,0,2.99,1.24,2.99,3.72v10.36h-6.1Z"/>
      <path class="uuid-1a7beb96-668a-4459-9b95-079c62ae0597" d="m124.32,20.18l-1.27-14.08h2.8l.59,6.47.05-.02c.42-.14.75-.33.98-.56s.4-.57.51-1.01c.11-.44.2-1.04.26-1.81l.26-3.06h2.83l-.28,3.3c-.09,1.07-.27,1.95-.53,2.65-.26.7-.67,1.27-1.22,1.72-.56.45-1.33.83-2.32,1.14l-.28.09.24,2.66h1.04c1.21,0,2.15-.2,2.83-.61.67-.41,1.17-1.06,1.5-1.97.32-.9.54-2.09.67-3.57l.42-5.42h2.83l-.45,5.75c-.09,1.16-.28,2.25-.57,3.26-.28,1.01-.71,1.9-1.27,2.66-.56.76-1.31,1.35-2.22,1.78s-2.06.64-3.43.64h-3.93Z"/>
      <path class="uuid-1a7beb96-668a-4459-9b95-079c62ae0597" d="m166.35,20.18v-2.52h.8c.71,0,1.06-.53,1.06-1.58v-7.49h-1.81v-2.5h7.23c2.76,0,4.14,1.52,4.14,4.57v9.51h-2.83v-9.14c0-.85-.15-1.47-.45-1.86-.3-.39-.75-.59-1.37-.59h-2.1v7.63c0,1.33-.25,2.33-.74,2.98-.49.65-1.28.98-2.37.98h-1.58Z"/>
      <path class="uuid-1a7beb96-668a-4459-9b95-079c62ae0597" d="m186.9,6.1c2.76,0,4.14,1.52,4.14,4.57v9.51h-2.83v-9.14c0-.85-.15-1.47-.46-1.86-.31-.39-.76-.59-1.35-.59h-2.73v11.58h-2.83V6.1h6.05Z"/>
      <path class="uuid-1a7beb96-668a-4459-9b95-079c62ae0597" d="m193.68,15.16V6.1h2.87v6.52l-1.44,2.54h-1.44Z"/>
      <path class="uuid-1a7beb96-668a-4459-9b95-079c62ae0597" d="m198.6,20.18v-2.52h.8c.71,0,1.06-.53,1.06-1.58v-7.49h-1.81v-2.5h7.23c2.76,0,4.14,1.52,4.14,4.57v9.51h-2.83v-9.14c0-.85-.15-1.47-.45-1.86-.3-.39-.75-.59-1.37-.59h-2.1v7.63c0,1.33-.25,2.33-.74,2.98-.49.65-1.28.98-2.37.98h-1.58Z"/>
      <path class="uuid-1a7beb96-668a-4459-9b95-079c62ae0597" d="m212.57,20.18v-2.52h4.78c.88,0,1.55-.37,2-1.09.46-.73.68-1.86.68-3.4s-.24-2.7-.71-3.45c-.47-.75-1.19-1.12-2.14-1.12h-1.93v1.34c0,.93.09,1.56.27,1.91.18.35.49.52.93.52.09,0,.19,0,.29-.01.1,0,.19-.01.27-.01v2.5c-.31.05-.65.07-1.01.07-1.35,0-2.28-.4-2.79-1.2-.51-.8-.77-1.99-.77-3.58v-4.03h4.87c1.74,0,3.12.61,4.12,1.83,1,1.22,1.51,2.95,1.51,5.19,0,1.37-.2,2.58-.6,3.64s-1.01,1.9-1.84,2.51-1.86.92-3.1.92h-4.85Z"/>
      <path class="uuid-1a7beb96-668a-4459-9b95-079c62ae0597" d="m253.68,20.18v-2.52h.8c.71,0,1.06-.53,1.06-1.58v-7.49h-1.81v-2.5h7.23c2.76,0,4.14,1.52,4.14,4.57v9.51h-2.83v-9.14c0-.85-.15-1.47-.45-1.86-.3-.39-.75-.59-1.37-.59h-2.1v7.63c0,1.33-.25,2.33-.74,2.98-.49.65-1.28.98-2.37.98h-1.58Z"/>
      <path class="uuid-1a7beb96-668a-4459-9b95-079c62ae0597" d="m267.05,20.18v-2.52h3.49c.91,0,1.6-.37,2.07-1.09s.71-1.87.71-3.43-.24-2.68-.73-3.43c-.49-.75-1.19-1.12-2.12-1.12h-3.41v-2.5h3.56c1.74,0,3.12.61,4.12,1.83,1,1.22,1.51,2.95,1.51,5.19,0,1.38-.2,2.6-.6,3.66-.4,1.06-1.01,1.89-1.84,2.5s-1.87.91-3.14.91h-3.6Z"/>
      <path class="uuid-1a7beb96-668a-4459-9b95-079c62ae0597" d="m278.77,20.18V6.1h2.83v14.08h-2.83Z"/>
      <path class="uuid-1a7beb96-668a-4459-9b95-079c62ae0597" d="m289.98,20.18v-9.14c0-.85-.15-1.47-.45-1.86-.3-.39-.75-.59-1.37-.59h-4.71v-2.5h5.2c2.76,0,4.14,1.52,4.14,4.57v9.51h-2.83Z"/>
      <path class="uuid-1a7beb96-668a-4459-9b95-079c62ae0597" d="m294.69,20.18v-2.52h2.71l-1.79-11.56h2.83l1.7,11.25c.9-.31,1.5-.94,1.83-1.87.32-.93.55-2.26.69-3.97l.45-5.42h2.83l-.45,5.75c-.08,1.08-.22,2.12-.44,3.12s-.56,1.89-1.06,2.67c-.49.79-1.2,1.41-2.11,1.86-.91.46-2.09.68-3.55.68h-3.63Z"/>
      <path class="uuid-1a7beb96-668a-4459-9b95-079c62ae0597" d="m307.22,20.18v-2.52h.8c.71,0,1.06-.53,1.06-1.58v-7.49h-1.81v-2.5h7.23c2.76,0,4.14,1.52,4.14,4.57v9.51h-2.83v-9.14c0-.85-.15-1.47-.45-1.86-.3-.39-.75-.59-1.37-.59h-2.1v7.63c0,1.33-.25,2.33-.74,2.98-.49.65-1.28.98-2.37.98h-1.58Z"/>
    </g>
  </g>
</svg>