<?xml version="1.0" encoding="UTF-8"?>
<svg id="uuid-463e28b6-b143-487a-ae51-5bd3205be68b" data-name="Layer 2" xmlns="http://www.w3.org/2000/svg" viewBox="0 0 166.43 307.38">
  <defs>
    <style>
      .uuid-a21e8530-947c-4915-95c2-437ab00b855c {
        fill: #fff;
      }
    </style>
  </defs>
  <g id="uuid-d877d4ad-1a29-4367-991d-14cf00f76aad" data-name="Layer 2 copy">
    <path class="uuid-a21e8530-947c-4915-95c2-437ab00b855c" d="m0,307.38v-80.44c11.09-1.32,21.11-4.3,30.04-8.94,8.93-4.63,16.91-10.43,23.95-17.38,7.57-7.61,13.46-16.46,17.66-26.57,4.19-10.09,6.29-20.93,6.29-32.53v24.81c0-5.96-1.01-10.34-3.04-13.16-2.03-2.81-5.62-4.22-10.76-4.22H15.43V0h70.23c23.81,0,41.47,7.95,52.97,23.84,11.5,15.89,17.25,36.92,17.25,63.06v116.69l10.55,98.82h-66.98l-14.61-57.11h-2.03c-11.64,15.89-24.56,29.22-38.77,39.97-14.21,10.76-28.89,18.12-44.04,22.1Z"/>
  </g>
</svg>