<?xml version="1.0" encoding="UTF-8"?>
<svg id="uuid-95b4a895-dc47-4275-9624-dcfbfe7b1522" data-name="Layer 2" xmlns="http://www.w3.org/2000/svg" viewBox="0 0 83.05 115.08">
  <defs>
    <style>
      .uuid-ce05dc86-f5cd-47c7-9d01-b3ee64b3ea8d {
        fill: #ee3b23;
      }
    </style>
  </defs>
  <g id="uuid-e5cdb465-fa3e-4a24-8032-b014b2242ef6" data-name="Layer 2 copy">
    <g>
      <path class="uuid-ce05dc86-f5cd-47c7-9d01-b3ee64b3ea8d" d="m5.46,11.34l12.03-7.19,2.51,4.2c.62,1.04.76,2.01.42,2.92-.34.91-1.13,1.73-2.35,2.46l-8.23,4.92-4.37-7.32Zm3.08.88l1.97,3.29,6.04-3.61c1.48-.88,1.92-1.83,1.32-2.84l-1.06-1.78-8.27,4.94Z"/>
      <path class="uuid-ce05dc86-f5cd-47c7-9d01-b3ee64b3ea8d" d="m12.89,23.77l10.15-6.06-2.23-3.74,1.88-1.12,4.31,7.21-1.88,1.12-.88-1.48-10.15,6.06-1.2-2Z"/>
      <path class="uuid-ce05dc86-f5cd-47c7-9d01-b3ee64b3ea8d" d="m15.54,28.2l3.17-1.9c2.21-1.32,4.1-1.65,5.67-.98l3.08-4.48,1.28,2.14-4.25,6.02c.47.05.96-.02,1.49-.19.52-.18,1.12-.46,1.78-.86l2.91-1.74,1.2,2-2.87,1.71c-2.24,1.34-4.16,1.64-5.77.9l-3.28,4.76-1.28-2.14,4.39-6.24c-.44,0-.92.07-1.43.25-.51.17-1.07.45-1.69.82l-3.21,1.92-1.2-2Z"/>
      <path class="uuid-ce05dc86-f5cd-47c7-9d01-b3ee64b3ea8d" d="m21.08,37.47l12.03-7.19,1.2,2-12.03,7.19-1.2-2Z"/>
      <path class="uuid-ce05dc86-f5cd-47c7-9d01-b3ee64b3ea8d" d="m26.03,45.76l7.13-4.26,1.2,2-7.13,4.26-1.2-2Zm3.04,5.09l7.92-4.74c1.48-.88,1.92-1.83,1.32-2.84l-2.14-3.58,1.88-1.12,2.39,4c.61,1.02.75,1.99.41,2.91s-1.12,1.74-2.35,2.47l-8.23,4.92-1.21-2.02Z"/>
      <path class="uuid-ce05dc86-f5cd-47c7-9d01-b3ee64b3ea8d" d="m30.93,54.36l2.12-1.27c.93.45,1.82.7,2.68.73.61.02,1.21-.07,1.8-.27.59-.2,1.18-.47,1.79-.84l1.88-1.12c.51-.31.86-.6,1.03-.89.18-.29.15-.62-.07-1l-.31-.52,1.88-1.12.75,1.25c.48.79.56,1.52.27,2.17-.3.65-.96,1.29-2,1.91l-5.15,3.08-3.55,2.7-1-1.68,2.53-2.2-.02-.04c-.79.14-1.62.13-2.49-.04-.87-.17-1.58-.45-2.13-.85Z"/>
      <path class="uuid-ce05dc86-f5cd-47c7-9d01-b3ee64b3ea8d" d="m34.86,60.54l1.88-1.12,1.39,2.32,6.73-4.02c.51-.31.86-.6,1.03-.89.18-.29.15-.62-.07-1l-.31-.53,1.88-1.12.75,1.25c.47.78.56,1.5.27,2.17-.29.67-.95,1.31-1.99,1.93l-8.95,5.35-2.6-4.34Z"/>
      <path class="uuid-ce05dc86-f5cd-47c7-9d01-b3ee64b3ea8d" d="m40.96,70.74l12.03-7.19,2.51,4.2c.62,1.04.76,2.01.41,2.92s-1.13,1.73-2.35,2.46l-8.23,4.92-4.37-7.32Zm3.08.88l1.97,3.29,6.04-3.61c1.48-.89,1.92-1.83,1.32-2.84l-1.06-1.78-8.27,4.94Z"/>
      <path class="uuid-ce05dc86-f5cd-47c7-9d01-b3ee64b3ea8d" d="m50.63,77.14l7.72-4.61,1.24,2.08-5.72,3.42-2.62.17-.63-1.05Z"/>
      <path class="uuid-ce05dc86-f5cd-47c7-9d01-b3ee64b3ea8d" d="m50.99,87.52l7.92-4.74c1.48-.89,1.92-1.83,1.32-2.84l-1.8-3.01,1.88-1.12,2.05,3.44c.62,1.04.76,2.01.41,2.92-.34.91-1.13,1.73-2.35,2.46l-8.23,4.92-1.21-2.02Z"/>
      <path class="uuid-ce05dc86-f5cd-47c7-9d01-b3ee64b3ea8d" d="m53.29,91.36l1.88-1.12,2.54,4.25,7.68-10.19,1.24,2.08-4.11,5.34c.82.06,1.88-.3,3.17-1.07l2.57-1.53,1.2,2-2.53,1.51c-2.25,1.35-4.18,1.64-5.78.88l-2.55,3.36-1.5.89-3.82-6.39Z"/>
      <path class="uuid-ce05dc86-f5cd-47c7-9d01-b3ee64b3ea8d" d="m58.54,100.15l12.03-7.19,1.2,2-12.03,7.19-1.2-2Z"/>
      <path class="uuid-ce05dc86-f5cd-47c7-9d01-b3ee64b3ea8d" d="m60.96,104.19l3.17-1.9c2.21-1.32,4.1-1.65,5.67-.98l3.08-4.48,1.28,2.14-4.25,6.02c.47.05.96-.02,1.49-.19.52-.18,1.12-.46,1.78-.86l2.91-1.74,1.2,2-2.87,1.72c-2.24,1.34-4.16,1.64-5.77.9l-3.28,4.76-1.28-2.14,4.39-6.24c-.44,0-.92.07-1.43.25-.51.17-1.07.45-1.69.82l-3.21,1.92-1.2-2Z"/>
    </g>
  </g>
</svg>