<?xml version="1.0" encoding="UTF-8"?>
<svg id="uuid-a19cff88-65ea-42c8-88ca-532b182ec2ad" data-name="Layer 2" xmlns="http://www.w3.org/2000/svg" viewBox="0 0 983.37 857.54">
  <defs>
    <style>
      .uuid-c45bf56c-652e-408e-b9c5-fada1fd4c81a {
        fill: #ee3b23;
      }

      .uuid-f96c7292-2878-477f-99f3-a1ea763d9e58, .uuid-16505af2-db82-4b6e-8562-472180288bfd {
        fill: #fff;
      }

      .uuid-ed00056c-0f00-407b-b8b7-d239fe35ba1e {
        fill: #31b44a;
      }

      .uuid-16505af2-db82-4b6e-8562-472180288bfd {
        stroke: #34b44a;
        stroke-miterlimit: 10;
      }
    </style>
  </defs>
  <g id="uuid-55c5c388-12d9-40d7-a479-be3ff7bdba9b" data-name="Layer 1">
    <g>
      <path class="uuid-f96c7292-2878-477f-99f3-a1ea763d9e58" d="m0,25.24v-4.98h1.06c.82,0,1.23-.51,1.23-1.53v-8.74H0v-4.98h11.13c2.1,0,3.74.57,4.92,1.71s1.76,2.87,1.76,5.2v13.32h-5.88v-12.95c0-1.53-.64-2.29-1.93-2.29h-1.83v8.8c0,2.17-.43,3.79-1.3,4.85-.86,1.06-2.24,1.59-4.12,1.59H0Z"/>
      <path class="uuid-f96c7292-2878-477f-99f3-a1ea763d9e58" d="m21.12,25.24V5.02h5.85v20.23h-5.85Z"/>
      <path class="uuid-f96c7292-2878-477f-99f3-a1ea763d9e58" d="m35.34,5.02h9.03v3.52l-5.41,16.71h-5.95l4.98-15.25h-8.54V0h5.88v5.02Z"/>
      <path class="uuid-f96c7292-2878-477f-99f3-a1ea763d9e58" d="m46.9,25.24V5.02h5.85v20.23h-5.85Z"/>
      <path class="uuid-f96c7292-2878-477f-99f3-a1ea763d9e58" d="m62.51,25.24v-15.25h-7.37v-4.98h15.78v4.98h-2.52v15.25h-5.88Z"/>
      <path class="uuid-f96c7292-2878-477f-99f3-a1ea763d9e58" d="m71.71,25.61v-5.31c1.4-.44,2.48-1.05,3.25-1.83.4-.42.71-.89.93-1.41.22-.52.33-1.12.33-1.81v-3.65c0-1.06-.42-1.59-1.26-1.59h-2.26v-4.98h4.12c1.84,0,3.17.53,4,1.58.83,1.05,1.25,2.6,1.25,4.63v7.57l.83,6.44h-4.75l-.96-3.82h-.13c-.66,1.04-1.44,1.89-2.33,2.54s-1.89,1.2-3.02,1.64Z"/>
      <path class="uuid-f96c7292-2878-477f-99f3-a1ea763d9e58" d="m91.34,25.24v-4.98h1.06c.82,0,1.23-.51,1.23-1.53v-8.74h-2.29v-4.98h11.13c2.1,0,3.74.57,4.92,1.71s1.76,2.87,1.76,5.2v13.32h-5.88v-12.95c0-1.53-.64-2.29-1.93-2.29h-1.83v8.8c0,2.17-.43,3.79-1.3,4.85-.86,1.06-2.24,1.59-4.12,1.59h-2.76Z"/>
      <path class="uuid-f96c7292-2878-477f-99f3-a1ea763d9e58" d="m112.46,25.24V5.02h5.85v20.23h-5.85Z"/>
      <path class="uuid-f96c7292-2878-477f-99f3-a1ea763d9e58" d="m128.07,25.24v-15.25h-7.37v-4.98h15.78v4.98h-2.52v15.25h-5.88Z"/>
      <path class="uuid-f96c7292-2878-477f-99f3-a1ea763d9e58" d="m138.87,25.24V5.02h5.85v20.23h-5.85Z"/>
      <path class="uuid-f96c7292-2878-477f-99f3-a1ea763d9e58" d="m147.2,25.24v-4.98h7.34v-7.97c0-1.53-.64-2.29-1.93-2.29h-5.41v-4.98h6.54c2.1,0,3.74.57,4.92,1.71,1.17,1.14,1.76,2.87,1.76,5.2v8.34h2.39v4.98h-15.61Z"/>
      <path class="uuid-f96c7292-2878-477f-99f3-a1ea763d9e58" d="m163.55,25.24v-4.98h3.35l-2.29-15.25h5.88l1.86,14.65c.84-.46,1.45-1.26,1.83-2.38.38-1.12.65-2.67.83-4.67l.63-7.61h5.88l-.66,7.71c-.16,1.75-.44,3.39-.85,4.92-.41,1.53-1.03,2.86-1.86,3.99-.83,1.13-1.95,2.01-3.37,2.66-1.42.64-3.2.96-5.35.96h-5.88Z"/>
      <path class="uuid-c45bf56c-652e-408e-b9c5-fada1fd4c81a" d="m200.91,25.24v-12.89c0-1.2-.22-2.07-.65-2.62s-1.07-.83-1.91-.83h-7.41v-3.52h8.1c3.9,0,5.85,2.15,5.85,6.44v13.42h-3.99Zm-9.96,0v-11.69h3.99v11.69h-3.99Z"/>
      <path class="uuid-c45bf56c-652e-408e-b9c5-fada1fd4c81a" d="m207.65,25.24v-3.55h4.92c1.28,0,2.26-.51,2.92-1.54.66-1.03,1-2.64,1-4.83s-.34-3.78-1.03-4.83c-.69-1.05-1.68-1.58-2.99-1.58h-4.82v-3.52h5.02c2.46,0,4.4.86,5.81,2.57,1.42,1.72,2.13,4.16,2.13,7.32,0,1.95-.28,3.67-.85,5.16-.56,1.5-1.43,2.67-2.59,3.52s-2.64,1.28-4.43,1.28h-5.08Z"/>
      <path class="uuid-c45bf56c-652e-408e-b9c5-fada1fd4c81a" d="m224.19,25.24V5.38h3.99v19.86h-3.99Z"/>
      <path class="uuid-c45bf56c-652e-408e-b9c5-fada1fd4c81a" d="m240,25.24v-12.89c0-1.2-.21-2.07-.63-2.62-.42-.55-1.06-.83-1.93-.83h-6.64v-3.52h7.34c3.9,0,5.85,2.15,5.85,6.44v13.42h-3.99Z"/>
      <path class="uuid-c45bf56c-652e-408e-b9c5-fada1fd4c81a" d="m246.65,25.24v-3.55h3.82l-2.52-16.31h3.99l2.39,15.88c1.26-.44,2.12-1.32,2.57-2.64.45-1.32.78-3.18.98-5.6l.63-7.64h3.99l-.63,8.1c-.11,1.53-.32,3-.61,4.4s-.8,2.66-1.49,3.77c-.7,1.11-1.69,1.98-2.97,2.62s-2.96.96-5.02.96h-5.12Z"/>
      <path class="uuid-c45bf56c-652e-408e-b9c5-fada1fd4c81a" d="m264.32,25.24v-3.55h1.13c1,0,1.49-.74,1.49-2.23v-10.56h-2.56v-3.52h10.2c3.9,0,5.85,2.15,5.85,6.44v13.42h-3.99v-12.89c0-1.2-.21-2.07-.63-2.62-.42-.55-1.06-.83-1.93-.83h-2.96v10.76c0,1.88-.35,3.28-1.05,4.2-.7.92-1.81,1.38-3.34,1.38h-2.23Z"/>
      <path class="uuid-c45bf56c-652e-408e-b9c5-fada1fd4c81a" d="m286.77,5.38h9.23v2.69l-5.35,17.17h-4.05l5.15-16.34h-8.97V0h3.99v5.38Z"/>
      <path class="uuid-c45bf56c-652e-408e-b9c5-fada1fd4c81a" d="m304.67,25.24v-3.55h1.13c1,0,1.49-.74,1.49-2.23v-10.56h-2.56v-3.52h10.2c3.9,0,5.85,2.15,5.85,6.44v13.42h-3.99v-12.89c0-1.2-.21-2.07-.63-2.62-.42-.55-1.06-.83-1.93-.83h-2.96v10.76c0,1.88-.35,3.28-1.05,4.2-.7.92-1.81,1.38-3.34,1.38h-2.23Z"/>
      <path class="uuid-c45bf56c-652e-408e-b9c5-fada1fd4c81a" d="m325.13,25.24V5.38h3.99v19.86h-3.99Z"/>
      <path class="uuid-c45bf56c-652e-408e-b9c5-fada1fd4c81a" d="m331.94,25.24v-3.55h3.82l-2.52-16.31h3.99l2.39,15.88c1.26-.44,2.12-1.32,2.57-2.64.45-1.32.78-3.18.98-5.6l.63-7.64h3.99l-.63,8.1c-.11,1.53-.32,3-.61,4.4s-.8,2.66-1.49,3.77c-.7,1.11-1.69,1.98-2.97,2.62s-2.96.96-5.02.96h-5.12Z"/>
      <path class="uuid-c45bf56c-652e-408e-b9c5-fada1fd4c81a" d="m349.51,25.24v-3.55h8.37l-8.47-16.31h4.35l4.45,8.87c.42-.46.71-1.07.86-1.83.15-.75.23-1.74.23-2.96v-4.09h3.95v4.09c0,1.97-.3,3.63-.9,4.96-.6,1.34-1.45,2.33-2.56,2.97l2.59,5.05v2.79h-12.89Z"/>
      <path class="uuid-c45bf56c-652e-408e-b9c5-fada1fd4c81a" d="m376.58,25.24v-12.89c0-1.2-.22-2.07-.65-2.62s-1.07-.83-1.91-.83h-7.41v-3.52h8.1c3.9,0,5.85,2.15,5.85,6.44v13.42h-3.99Zm-9.96,0v-11.69h3.99v11.69h-3.99Z"/>
      <path class="uuid-c45bf56c-652e-408e-b9c5-fada1fd4c81a" d="m392.03,25.24l-1.79-19.86h3.95l.83,9.13.07-.03c.6-.2,1.06-.46,1.38-.8.32-.33.56-.81.71-1.43.15-.62.28-1.47.37-2.56l.37-4.32h3.99l-.4,4.65c-.13,1.51-.38,2.75-.75,3.74-.37.99-.94,1.79-1.73,2.42s-1.88,1.17-3.27,1.61l-.4.13.33,3.75h1.46c1.71,0,3.03-.29,3.99-.86.95-.58,1.65-1.5,2.11-2.77.45-1.27.77-2.95.95-5.03l.6-7.64h3.99l-.63,8.1c-.13,1.64-.4,3.17-.8,4.6-.4,1.43-1,2.68-1.79,3.75-.8,1.07-1.84,1.91-3.14,2.51-1.3.6-2.91.9-4.83.9h-5.55Z"/>
      <path class="uuid-c45bf56c-652e-408e-b9c5-fada1fd4c81a" d="m411.16,18.17V5.38h4.05v9.2l-2.03,3.59h-2.03Z"/>
      <path class="uuid-c45bf56c-652e-408e-b9c5-fada1fd4c81a" d="m417.3,25.54v-3.89c1.35-.64,2.45-1.52,3.29-2.62.97-1.31,1.46-2.86,1.46-4.65v-3.29c0-.73-.12-1.28-.35-1.64s-.64-.55-1.21-.55h-1.69v-3.52h3.02c1.44,0,2.5.43,3.17,1.3.68.86,1.01,2.18,1.01,3.95v8.2l.76,6.41h-3.45l-.76-4.55h-.1c-.51,1.02-1.23,1.99-2.18,2.91-.94.92-1.93,1.57-2.97,1.94Z"/>
      <path class="uuid-c45bf56c-652e-408e-b9c5-fada1fd4c81a" d="m440.12,25.24v-12.89c0-1.2-.22-2.07-.65-2.62s-1.07-.83-1.91-.83h-7.41v-3.52h8.1c3.9,0,5.85,2.15,5.85,6.44v13.42h-3.99Zm-9.96,0v-11.69h3.99v11.69h-3.99Z"/>
      <path class="uuid-c45bf56c-652e-408e-b9c5-fada1fd4c81a" d="m450.35,5.38h9.23v2.69l-5.35,17.17h-4.05l5.15-16.34h-8.97V0h3.99v5.38Z"/>
      <path class="uuid-c45bf56c-652e-408e-b9c5-fada1fd4c81a" d="m468.85,25.24V5.38h8.47c3.92,0,5.88,2.15,5.88,6.44v13.42h-14.35Zm3.99-3.55h6.38v-9.33c0-1.2-.22-2.07-.65-2.62-.43-.55-1.08-.83-1.94-.83h-3.79v12.79Z"/>
      <path class="uuid-c45bf56c-652e-408e-b9c5-fada1fd4c81a" d="m486.22,18.17V5.38h4.05v9.2l-2.03,3.59h-2.03Z"/>
      <path class="uuid-c45bf56c-652e-408e-b9c5-fada1fd4c81a" d="m492.9,25.24v-3.55h4.62v-10.6c0-.73-.12-1.28-.35-1.64s-.64-.55-1.21-.55h-1.73v-3.52h3.06c2.81,0,4.22,1.75,4.22,5.25v14.61h-8.6Z"/>
      <path class="uuid-c45bf56c-652e-408e-b9c5-fada1fd4c81a" d="m514.75,5.02c1.28,0,2.31.31,3.07.93.76.62,1.31,1.48,1.64,2.57.33,1.1.5,2.39.5,3.87v12.85h-7.57v-3.55h3.59v-8.83c0-1.44-.18-2.5-.55-3.17s-.99-1.01-1.88-1.01c-.95,0-1.69.45-2.21,1.36-.52.91-.9,2.52-1.15,4.85l-1.13,10.36h-3.99l1.43-13.29-1.43-6.58h3.99l.56,2.92h.17c.47-.91,1.06-1.68,1.79-2.33.73-.64,1.78-.96,3.16-.96Z"/>
      <path class="uuid-c45bf56c-652e-408e-b9c5-fada1fd4c81a" d="m524.72,25.24v-10.73c0-1.35.24-2.48.73-3.39.49-.91,1.08-1.62,1.79-2.13v-.1h-4.12v-3.52h7.84v2.79c-.31.24-.64.57-1,.98-.35.41-.65.97-.9,1.68-.24.71-.37,1.61-.37,2.69v11.72h-3.99Z"/>
      <path class="uuid-c45bf56c-652e-408e-b9c5-fada1fd4c81a" d="m533.65,25.24V5.38h3.99v19.86h-3.99Z"/>
      <path class="uuid-c45bf56c-652e-408e-b9c5-fada1fd4c81a" d="m551.06,5.02c1.28,0,2.31.31,3.07.93.76.62,1.31,1.48,1.64,2.57.33,1.1.5,2.39.5,3.87v12.85h-7.57v-3.55h3.59v-8.83c0-1.44-.18-2.5-.55-3.17s-.99-1.01-1.88-1.01c-.95,0-1.69.45-2.21,1.36s-.9,2.52-1.15,4.85l-1.13,10.36h-3.99l1.43-13.29-1.43-6.58h3.99l.56,2.92h.17c.46-.91,1.06-1.68,1.79-2.33.73-.64,1.78-.96,3.16-.96Z"/>
      <path class="uuid-c45bf56c-652e-408e-b9c5-fada1fd4c81a" d="m566.93,25.24V5.38h8.47c3.92,0,5.88,2.15,5.88,6.44v13.42h-14.35Zm3.99-3.55h6.38v-9.33c0-1.2-.22-2.07-.65-2.62s-1.08-.83-1.94-.83h-3.79v12.79Z"/>
      <path class="uuid-c45bf56c-652e-408e-b9c5-fada1fd4c81a" d="m584.3,18.17V5.38h4.05v9.2l-2.03,3.59h-2.03Z"/>
      <path class="uuid-c45bf56c-652e-408e-b9c5-fada1fd4c81a" d="m591.98,23.55c0-1.26.8-2.13,1.96-2.13s1.96.86,1.96,2.13c0,1.16-.76,2.06-1.99,2.06-1.13,0-1.96-.9-1.93-2.06Z"/>
      <path class="uuid-c45bf56c-652e-408e-b9c5-fada1fd4c81a" d="m598.92,25.24v-3.55h1.13c1,0,1.5-.74,1.5-2.23v-10.56h-2.56v-3.52h10.2c3.9,0,5.85,2.15,5.85,6.44v13.42h-3.99v-12.89c0-1.2-.21-2.07-.63-2.62-.42-.55-1.06-.83-1.93-.83h-2.96v10.76c0,1.88-.35,3.28-1.05,4.2-.7.92-1.81,1.38-3.34,1.38h-2.22Z"/>
      <path class="uuid-c45bf56c-652e-408e-b9c5-fada1fd4c81a" d="m619.38,25.24V5.38h3.99v19.86h-3.99Z"/>
      <path class="uuid-c45bf56c-652e-408e-b9c5-fada1fd4c81a" d="m626.68,25.24v-3.55h8.37l-8.47-16.31h4.35l4.45,8.87c.42-.46.71-1.07.86-1.83.15-.75.23-1.74.23-2.96v-4.09h3.95v4.09c0,1.97-.3,3.63-.9,4.96-.6,1.34-1.45,2.33-2.56,2.97l2.59,5.05v2.79h-12.89Z"/>
      <path class="uuid-c45bf56c-652e-408e-b9c5-fada1fd4c81a" d="m651.1,25.24v-12.89c0-1.2-.21-2.07-.63-2.62-.42-.55-1.06-.83-1.93-.83h-6.64v-3.52h7.34c3.9,0,5.85,2.15,5.85,6.44v13.42h-3.99Z"/>
      <path class="uuid-c45bf56c-652e-408e-b9c5-fada1fd4c81a" d="m668.33,5.02c1.28,0,2.31.31,3.07.93.76.62,1.31,1.48,1.64,2.57.33,1.1.5,2.39.5,3.87v12.85h-7.57v-3.55h3.59v-8.83c0-1.44-.18-2.5-.55-3.17s-.99-1.01-1.88-1.01c-.95,0-1.69.45-2.21,1.36-.52.91-.9,2.52-1.15,4.85l-1.13,10.36h-3.99l1.43-13.29-1.43-6.58h3.99l.56,2.92h.17c.46-.91,1.06-1.68,1.79-2.33.73-.64,1.78-.96,3.16-.96Z"/>
      <path class="uuid-c45bf56c-652e-408e-b9c5-fada1fd4c81a" d="m677.9,25.24V5.38h3.99v19.86h-3.99Z"/>
      <path class="uuid-c45bf56c-652e-408e-b9c5-fada1fd4c81a" d="m691.75,13.88c.2-.84.4-1.78.6-2.82.2-1.04.37-2.06.52-3.06.14-1,.26-1.87.35-2.62h3.82l.23.37c-.29,1.44-.65,2.85-1.1,4.22-.44,1.37-.92,2.68-1.43,3.92h-2.99Z"/>
      <path class="uuid-c45bf56c-652e-408e-b9c5-fada1fd4c81a" d="m705.73,25.24V8.9h-7.31v-3.52h13.95v3.52h-2.66v16.34h-3.99Z"/>
      <path class="uuid-c45bf56c-652e-408e-b9c5-fada1fd4c81a" d="m713.77,18.1v-3.55h8.07v3.55h-8.07Z"/>
      <path class="uuid-c45bf56c-652e-408e-b9c5-fada1fd4c81a" d="m723.64,13.88c.2-.84.4-1.78.6-2.82.2-1.04.37-2.06.52-3.06.14-1,.26-1.87.35-2.62h3.82l.23.37c-.29,1.44-.65,2.85-1.1,4.22-.44,1.37-.92,2.68-1.43,3.92h-2.99Z"/>
      <path class="uuid-c45bf56c-652e-408e-b9c5-fada1fd4c81a" d="m730.64,25.24v-3.55h7.81v-9.3c0-1.26-.22-2.16-.66-2.69-.44-.53-1.1-.8-1.96-.8h-5.18v-3.52h5.95c1.9,0,3.35.53,4.35,1.59,1,1.06,1.49,2.69,1.49,4.88v9.83h2.33v3.55h-14.12Z"/>
      <path class="uuid-c45bf56c-652e-408e-b9c5-fada1fd4c81a" d="m753.66,25.24V5.38h8.47c3.92,0,5.88,2.15,5.88,6.44v13.42h-14.35Zm3.99-3.55h6.38v-9.33c0-1.2-.22-2.07-.65-2.62s-1.08-.83-1.94-.83h-3.79v12.79Z"/>
      <path class="uuid-c45bf56c-652e-408e-b9c5-fada1fd4c81a" d="m771.03,18.17V5.38h4.05v9.2l-2.03,3.59h-2.03Z"/>
      <path class="uuid-c45bf56c-652e-408e-b9c5-fada1fd4c81a" d="m777.71,25.24v-3.55h4.62v-10.6c0-.73-.12-1.28-.35-1.64s-.64-.55-1.21-.55h-1.73v-3.52h3.06c2.81,0,4.22,1.75,4.22,5.25v14.61h-8.6Z"/>
      <path class="uuid-c45bf56c-652e-408e-b9c5-fada1fd4c81a" d="m790.96,25.24l-1.79-19.86h3.95l.83,9.13.07-.03c.6-.2,1.06-.46,1.38-.8s.56-.81.71-1.43c.15-.62.28-1.47.37-2.56l.37-4.32h3.99l-.4,4.65c-.13,1.51-.38,2.75-.75,3.74s-.94,1.79-1.73,2.42-1.88,1.17-3.27,1.61l-.4.13.33,3.75h1.46c1.7,0,3.03-.29,3.99-.86.95-.58,1.66-1.5,2.11-2.77.45-1.27.77-2.95.95-5.03l.6-7.64h3.99l-.63,8.1c-.13,1.64-.4,3.17-.8,4.6-.4,1.43-1,2.68-1.79,3.75-.8,1.07-1.84,1.91-3.14,2.51-1.29.6-2.91.9-4.83.9h-5.55Z"/>
      <path class="uuid-c45bf56c-652e-408e-b9c5-fada1fd4c81a" d="m819.39,5.02c1.28,0,2.31.31,3.07.93.76.62,1.31,1.48,1.64,2.57.33,1.1.5,2.39.5,3.87v12.85h-7.57v-3.55h3.59v-8.83c0-1.44-.18-2.5-.55-3.17s-.99-1.01-1.88-1.01c-.95,0-1.69.45-2.21,1.36-.52.91-.9,2.52-1.15,4.85l-1.13,10.36h-3.99l1.43-13.29-1.43-6.58h3.99l.56,2.92h.17c.46-.91,1.06-1.68,1.79-2.33.73-.64,1.78-.96,3.16-.96Z"/>
      <path class="uuid-c45bf56c-652e-408e-b9c5-fada1fd4c81a" d="m834.67,25.24v-3.55h1.13c1,0,1.49-.74,1.49-2.23v-10.56h-2.56v-3.52h10.2c3.9,0,5.85,2.15,5.85,6.44v13.42h-3.99v-12.89c0-1.2-.21-2.07-.63-2.62s-1.06-.83-1.93-.83h-2.96v10.76c0,1.88-.35,3.28-1.05,4.2-.7.92-1.81,1.38-3.34,1.38h-2.23Z"/>
      <path class="uuid-c45bf56c-652e-408e-b9c5-fada1fd4c81a" d="m855.13,25.24V5.38h3.99v19.86h-3.99Z"/>
      <path class="uuid-c45bf56c-652e-408e-b9c5-fada1fd4c81a" d="m863.27,23.55c0-1.26.8-2.13,1.96-2.13s1.96.86,1.96,2.13c0,1.16-.76,2.06-1.99,2.06-1.13,0-1.96-.9-1.93-2.06Z"/>
      <path class="uuid-c45bf56c-652e-408e-b9c5-fada1fd4c81a" d="m870.81,25.24V5.38h8.47c3.92,0,5.88,2.15,5.88,6.44v13.42h-14.35Zm3.99-3.55h6.38v-9.33c0-1.2-.22-2.07-.65-2.62s-1.08-.83-1.94-.83h-3.79v12.79Z"/>
      <path class="uuid-c45bf56c-652e-408e-b9c5-fada1fd4c81a" d="m888.18,18.17V5.38h4.05v9.2l-2.03,3.59h-2.03Z"/>
      <path class="uuid-c45bf56c-652e-408e-b9c5-fada1fd4c81a" d="m903.46,25.64c-1.86,0-3.38-.46-4.55-1.39-1.17-.93-2.03-2.18-2.57-3.75-.54-1.57-.81-3.32-.81-5.25V5.38h4.02v9.9c0,2.39.32,4.15.96,5.26.64,1.12,1.63,1.68,2.96,1.68,1.51,0,2.52-.65,3.04-1.94.52-1.29.78-3.13.78-5.5,0-2.01-.16-3.58-.48-4.68s-.99-1.66-2.01-1.66c-.33,0-.71.04-1.15.13-.43.09-.83.22-1.18.4v-3.42c.35-.11.8-.23,1.34-.37s1.13-.2,1.78-.2c1.42,0,2.55.38,3.39,1.13s1.44,1.83,1.79,3.24c.35,1.41.53,3.08.53,5.03,0,3.68-.65,6.47-1.96,8.39-1.31,1.92-3.27,2.87-5.88,2.87Z"/>
      <path class="uuid-c45bf56c-652e-408e-b9c5-fada1fd4c81a" d="m913.52,25.24v-3.55h4.62v-10.6c0-.73-.12-1.28-.35-1.64s-.64-.55-1.21-.55h-1.73v-3.52h3.06c2.81,0,4.22,1.75,4.22,5.25v14.61h-8.6Z"/>
      <path class="uuid-c45bf56c-652e-408e-b9c5-fada1fd4c81a" d="m931.86,25.24V8.9h-7.31v-3.52h13.95v3.52h-2.66v16.34h-3.99Z"/>
      <path class="uuid-c45bf56c-652e-408e-b9c5-fada1fd4c81a" d="m941.19,25.24V5.38h3.99v19.86h-3.99Z"/>
      <path class="uuid-c45bf56c-652e-408e-b9c5-fada1fd4c81a" d="m956.93,25.64c-1.86,0-3.38-.46-4.55-1.39-1.17-.93-2.03-2.18-2.57-3.75-.54-1.57-.81-3.32-.81-5.25V5.38h4.02v9.9c0,2.39.32,4.15.96,5.26.64,1.12,1.63,1.68,2.96,1.68,1.51,0,2.52-.65,3.04-1.94.52-1.29.78-3.13.78-5.5,0-2.01-.16-3.58-.48-4.68s-.99-1.66-2.01-1.66c-.33,0-.71.04-1.15.13-.43.09-.83.22-1.18.4v-3.42c.35-.11.8-.23,1.34-.37s1.13-.2,1.78-.2c1.42,0,2.55.38,3.39,1.13s1.44,1.83,1.79,3.24c.35,1.41.53,3.08.53,5.03,0,3.68-.65,6.47-1.96,8.39-1.31,1.92-3.27,2.87-5.88,2.87Z"/>
      <path class="uuid-c45bf56c-652e-408e-b9c5-fada1fd4c81a" d="m975.5,25.64c-1.73,0-3.18-.44-4.35-1.31-1.17-.88-2.07-2.08-2.67-3.6-.61-1.53-.91-3.28-.91-5.25,0-1.15.09-2.3.28-3.44.19-1.14.4-2.19.65-3.14h-1.93v-3.52h8.9c2.48,0,4.42.87,5.81,2.61,1.4,1.74,2.09,4.21,2.09,7.42,0,1.97-.29,3.73-.86,5.26-.58,1.54-1.45,2.75-2.61,3.64-1.16.89-2.63,1.33-4.4,1.33Zm-.03-3.42c1.31,0,2.27-.58,2.89-1.73.62-1.15.93-2.83.93-5.05s-.33-3.91-.98-4.97-1.66-1.58-3.01-1.58h-2.86c-.18.78-.35,1.72-.53,2.84-.18,1.12-.27,2.33-.27,3.64,0,4.56,1.27,6.84,3.82,6.84Z"/>
    </g>
    <g>
      <path class="uuid-c45bf56c-652e-408e-b9c5-fada1fd4c81a" d="m211.76,181.77v-12.89c0-1.2-.21-2.07-.63-2.62-.42-.55-1.06-.83-1.93-.83h-6.64v-3.52h7.34c3.9,0,5.85,2.15,5.85,6.44v13.42h-3.99Z"/>
      <path class="uuid-c45bf56c-652e-408e-b9c5-fada1fd4c81a" d="m218.5,181.77v-3.55h7.81v-9.3c0-1.26-.22-2.16-.66-2.69s-1.1-.8-1.96-.8h-5.18v-3.52h5.95c1.9,0,3.35.53,4.35,1.6,1,1.06,1.49,2.69,1.49,4.88v9.83h2.33v3.55h-14.12Z"/>
      <path class="uuid-c45bf56c-652e-408e-b9c5-fada1fd4c81a" d="m244.11,161.54c1.28,0,2.31.31,3.07.93.76.62,1.31,1.48,1.64,2.57.33,1.1.5,2.39.5,3.87v12.85h-7.57v-3.55h3.59v-8.83c0-1.44-.18-2.5-.55-3.17s-.99-1.01-1.88-1.01c-.95,0-1.69.45-2.21,1.36-.52.91-.9,2.53-1.15,4.85l-1.13,10.36h-3.99l1.43-13.29-1.43-6.58h3.99l.56,2.92h.17c.47-.91,1.06-1.68,1.79-2.33.73-.64,1.78-.96,3.16-.96Z"/>
      <path class="uuid-c45bf56c-652e-408e-b9c5-fada1fd4c81a" d="m260.91,182.17c-1.86,0-3.38-.46-4.55-1.39-1.17-.93-2.03-2.18-2.57-3.75-.54-1.57-.81-3.32-.81-5.25v-9.87h4.02v9.9c0,2.39.32,4.15.96,5.26.64,1.12,1.63,1.68,2.96,1.68,1.51,0,2.52-.65,3.04-1.94.52-1.29.78-3.13.78-5.5,0-2.02-.16-3.58-.48-4.68-.32-1.11-.99-1.66-2.01-1.66-.33,0-.71.04-1.15.13-.43.09-.83.22-1.18.4v-3.42c.35-.11.8-.23,1.35-.37.54-.13,1.13-.2,1.78-.2,1.42,0,2.55.38,3.39,1.13.84.75,1.44,1.83,1.79,3.24.35,1.41.53,3.08.53,5.03,0,3.68-.65,6.47-1.96,8.39s-3.27,2.87-5.88,2.87Z"/>
      <path class="uuid-c45bf56c-652e-408e-b9c5-fada1fd4c81a" d="m271.31,181.77v-3.55h6.74c1.24,0,2.18-.51,2.82-1.54.64-1.03.96-2.63.96-4.8s-.33-3.81-1-4.87c-.66-1.05-1.67-1.58-3.02-1.58h-2.72v1.89c0,1.31.13,2.21.38,2.69.25.49.69.73,1.31.73.13,0,.27,0,.42-.02.14,0,.27-.02.38-.02v3.52c-.44.07-.92.1-1.43.1-1.9,0-3.22-.56-3.94-1.69-.72-1.13-1.08-2.81-1.08-5.05v-5.68h6.88c2.46,0,4.4.86,5.81,2.57,1.42,1.72,2.13,4.16,2.13,7.32,0,1.93-.28,3.64-.85,5.13-.56,1.5-1.43,2.67-2.59,3.54-1.16.86-2.62,1.29-4.37,1.29h-6.84Z"/>
      <path class="uuid-c45bf56c-652e-408e-b9c5-fada1fd4c81a" d="m296.25,182.17c-1.73,0-3.18-.44-4.35-1.31-1.17-.88-2.06-2.08-2.67-3.6-.61-1.53-.91-3.28-.91-5.25,0-1.15.09-2.3.28-3.44s.4-2.19.65-3.14h-1.93v-3.52h8.9c2.48,0,4.42.87,5.81,2.61,1.39,1.74,2.09,4.21,2.09,7.42,0,1.97-.29,3.73-.86,5.26-.58,1.54-1.44,2.75-2.61,3.64-1.16.88-2.63,1.33-4.4,1.33Zm-.03-3.42c1.31,0,2.27-.57,2.89-1.73.62-1.15.93-2.83.93-5.05s-.33-3.91-.98-4.96c-.65-1.05-1.66-1.58-3.01-1.58h-2.86c-.18.78-.35,1.72-.53,2.84-.18,1.12-.27,2.33-.27,3.64,0,4.56,1.27,6.84,3.82,6.84Z"/>
      <path class="uuid-c45bf56c-652e-408e-b9c5-fada1fd4c81a" d="m308.71,161.91h9.23v2.69l-5.35,17.17h-4.05l5.15-16.34h-8.97v-8.9h3.99v5.38Z"/>
      <path class="uuid-c45bf56c-652e-408e-b9c5-fada1fd4c81a" d="m326.94,181.77v-1.79l2.29-2.22c5.51-5.25,8.01-8.04,8.04-11.29,0-2.19-1.06-4.22-4.29-4.22-1.96,0-3.59,1-4.58,1.83l-.93-2.06c1.49-1.26,3.62-2.19,6.11-2.19,4.65,0,6.61,3.19,6.61,6.28,0,3.99-2.89,7.21-7.44,11.59l-1.73,1.59v.07h9.7v2.43h-13.79Z"/>
      <path class="uuid-c45bf56c-652e-408e-b9c5-fada1fd4c81a" d="m344.68,178.42c.83.53,2.76,1.36,4.78,1.36,3.75,0,4.92-2.39,4.88-4.19-.03-3.02-2.76-4.32-5.58-4.32h-1.63v-2.19h1.63c2.13,0,4.82-1.1,4.82-3.65,0-1.73-1.1-3.26-3.79-3.26-1.73,0-3.39.76-4.32,1.43l-.76-2.12c1.13-.83,3.32-1.66,5.65-1.66,4.25,0,6.18,2.52,6.18,5.15,0,2.22-1.33,4.12-3.99,5.08v.07c2.66.53,4.82,2.53,4.82,5.55,0,3.46-2.69,6.48-7.87,6.48-2.43,0-4.55-.76-5.61-1.46l.8-2.26Z"/>
      <path class="uuid-c45bf56c-652e-408e-b9c5-fada1fd4c81a" d="m360.49,174.63v-3.55h8.07v3.55h-8.07Z"/>
      <path class="uuid-c45bf56c-652e-408e-b9c5-fada1fd4c81a" d="m381.78,181.77v-12.89c0-1.2-.22-2.07-.65-2.62-.43-.55-1.07-.83-1.91-.83h-7.41v-3.52h8.1c3.9,0,5.85,2.15,5.85,6.44v13.42h-3.99Zm-9.96,0v-11.69h3.99v11.69h-3.99Z"/>
      <path class="uuid-c45bf56c-652e-408e-b9c5-fada1fd4c81a" d="m404,189.74v-17.77c0-2.32-.36-3.99-1.08-5-.72-1.01-1.8-1.51-3.24-1.51h-4.52v-3.55h4.75c2.55,0,4.54.84,5.98,2.53,1.44,1.68,2.16,4.2,2.16,7.54v17.77h-4.05Z"/>
      <path class="uuid-c45bf56c-652e-408e-b9c5-fada1fd4c81a" d="m411.51,174.7v-12.79h4.05v9.2l-2.03,3.59h-2.03Z"/>
      <path class="uuid-c45bf56c-652e-408e-b9c5-fada1fd4c81a" d="m426.85,181.77v-12.89c0-1.2-.21-2.07-.63-2.62-.42-.55-1.06-.83-1.93-.83h-6.64v-3.52h7.34c3.9,0,5.85,2.15,5.85,6.44v13.42h-3.99Z"/>
      <path class="uuid-c45bf56c-652e-408e-b9c5-fada1fd4c81a" d="m434.42,181.77v-5.25c0-1.88.27-3.49.81-4.83.54-1.34,1.36-2.34,2.44-3.01l-3.69-6.78h4.38l4.92,9.43c.42-.49.71-1.11.86-1.88.15-.76.23-1.71.23-2.84v-4.72h3.95v4.72c0,1.9-.28,3.53-.85,4.87s-1.4,2.34-2.51,3.01l3.99,7.27h-4.38l-5.18-9.87c-.38.49-.64,1.1-.8,1.84-.16.74-.23,1.67-.23,2.77v5.25h-3.95Z"/>
      <path class="uuid-c45bf56c-652e-408e-b9c5-fada1fd4c81a" d="m451.2,181.77v-3.55h1.13c1,0,1.49-.74,1.49-2.22v-10.56h-2.56v-3.52h10.2c3.9,0,5.85,2.15,5.85,6.44v13.42h-3.99v-12.89c0-1.2-.21-2.07-.63-2.62-.42-.55-1.06-.83-1.93-.83h-2.96v10.76c0,1.88-.35,3.28-1.05,4.2-.7.92-1.81,1.38-3.34,1.38h-2.23Z"/>
      <path class="uuid-c45bf56c-652e-408e-b9c5-fada1fd4c81a" d="m473.65,161.91h9.23v2.69l-5.35,17.17h-4.05l5.15-16.34h-8.97v-8.9h3.99v5.38Z"/>
      <path class="uuid-c45bf56c-652e-408e-b9c5-fada1fd4c81a" d="m498.03,181.77v-16.34h-7.31v-3.52h13.95v3.52h-2.66v16.34h-3.99Z"/>
      <path class="uuid-c45bf56c-652e-408e-b9c5-fada1fd4c81a" d="m505.67,181.77v-3.55h3.82l-2.52-16.31h3.99l2.39,15.88c1.26-.44,2.12-1.32,2.57-2.64.45-1.32.78-3.18.98-5.6l.63-7.64h3.99l-.63,8.11c-.11,1.53-.32,2.99-.61,4.4s-.8,2.66-1.49,3.77c-.7,1.11-1.69,1.98-2.97,2.62-1.29.64-2.96.96-5.02.96h-5.12Z"/>
      <path class="uuid-c45bf56c-652e-408e-b9c5-fada1fd4c81a" d="m531.54,181.77l-1.79-19.86h3.95l.83,9.13.07-.03c.6-.2,1.06-.46,1.38-.8s.56-.81.71-1.43c.15-.62.28-1.47.37-2.56l.37-4.32h3.99l-.4,4.65c-.13,1.51-.38,2.75-.75,3.74-.37.99-.94,1.79-1.73,2.43s-1.88,1.17-3.27,1.61l-.4.13.33,3.75h1.46c1.7,0,3.03-.29,3.99-.86s1.66-1.5,2.11-2.77c.45-1.27.77-2.95.95-5.03l.6-7.64h3.99l-.63,8.11c-.13,1.64-.4,3.17-.8,4.6s-1,2.68-1.79,3.75c-.8,1.07-1.84,1.91-3.14,2.51-1.29.6-2.91.9-4.83.9h-5.55Z"/>
      <path class="uuid-c45bf56c-652e-408e-b9c5-fada1fd4c81a" d="m550.67,174.7v-12.79h4.05v9.2l-2.03,3.59h-2.03Z"/>
      <path class="uuid-c45bf56c-652e-408e-b9c5-fada1fd4c81a" d="m556.82,182.07v-3.89c1.35-.64,2.45-1.52,3.29-2.62.97-1.31,1.46-2.86,1.46-4.65v-3.29c0-.73-.12-1.28-.35-1.64s-.64-.55-1.21-.55h-1.69v-3.52h3.02c1.44,0,2.5.43,3.17,1.3.67.86,1.01,2.18,1.01,3.95v8.21l.76,6.41h-3.45l-.76-4.55h-.1c-.51,1.02-1.23,1.99-2.18,2.91-.94.92-1.93,1.57-2.97,1.94Z"/>
      <path class="uuid-c45bf56c-652e-408e-b9c5-fada1fd4c81a" d="m579.64,181.77v-12.89c0-1.2-.22-2.07-.65-2.62-.43-.55-1.07-.83-1.91-.83h-7.41v-3.52h8.1c3.9,0,5.84,2.15,5.84,6.44v13.42h-3.99Zm-9.96,0v-11.69h3.99v11.69h-3.99Z"/>
      <path class="uuid-c45bf56c-652e-408e-b9c5-fada1fd4c81a" d="m589.87,161.91h9.23v2.69l-5.35,17.17h-4.05l5.15-16.34h-8.97v-8.9h3.99v5.38Z"/>
      <path class="uuid-c45bf56c-652e-408e-b9c5-fada1fd4c81a" d="m609.16,181.77l-1.79-19.86h3.95l.83,9.13.07-.03c.6-.2,1.06-.46,1.38-.8s.56-.81.71-1.43c.15-.62.28-1.47.37-2.56l.37-4.32h3.99l-.4,4.65c-.13,1.51-.38,2.75-.75,3.74-.37.99-.94,1.79-1.73,2.43s-1.88,1.17-3.27,1.61l-.4.13.33,3.75h1.46c1.7,0,3.03-.29,3.99-.86s1.66-1.5,2.11-2.77c.45-1.27.77-2.95.95-5.03l.6-7.64h3.99l-.63,8.11c-.13,1.64-.4,3.17-.8,4.6s-1,2.68-1.79,3.75c-.8,1.07-1.84,1.91-3.14,2.51-1.29.6-2.91.9-4.83.9h-5.55Z"/>
      <path class="uuid-c45bf56c-652e-408e-b9c5-fada1fd4c81a" d="m628.3,174.7v-12.79h4.05v9.2l-2.03,3.59h-2.03Z"/>
      <path class="uuid-c45bf56c-652e-408e-b9c5-fada1fd4c81a" d="m642.04,181.77v-3.55h1.13c1,0,1.49-.74,1.49-2.22v-10.56h-2.56v-3.52h10.2c3.9,0,5.85,2.15,5.85,6.44v13.42h-3.99v-12.89c0-1.2-.21-2.07-.63-2.62-.42-.55-1.06-.83-1.93-.83h-2.96v10.76c0,1.88-.35,3.28-1.05,4.2-.7.92-1.81,1.38-3.34,1.38h-2.23Z"/>
      <path class="uuid-c45bf56c-652e-408e-b9c5-fada1fd4c81a" d="m662.51,181.77v-19.86h3.99v19.86h-3.99Z"/>
      <path class="uuid-c45bf56c-652e-408e-b9c5-fada1fd4c81a" d="m669.31,181.77v-3.55h3.82l-2.52-16.31h3.99l2.39,15.88c1.26-.44,2.12-1.32,2.57-2.64.45-1.32.78-3.18.98-5.6l.63-7.64h3.99l-.63,8.11c-.11,1.53-.32,2.99-.61,4.4s-.8,2.66-1.49,3.77c-.7,1.11-1.69,1.98-2.97,2.62-1.29.64-2.96.96-5.02.96h-5.12Z"/>
      <path class="uuid-c45bf56c-652e-408e-b9c5-fada1fd4c81a" d="m686.88,181.77v-3.55h8.37l-8.47-16.31h4.35l4.45,8.87c.42-.46.71-1.07.86-1.83.15-.75.23-1.74.23-2.96v-4.09h3.95v4.09c0,1.97-.3,3.63-.9,4.96-.6,1.34-1.45,2.33-2.56,2.97l2.59,5.05v2.79h-12.89Z"/>
      <path class="uuid-c45bf56c-652e-408e-b9c5-fada1fd4c81a" d="m713.95,181.77v-12.89c0-1.2-.22-2.07-.65-2.62-.43-.55-1.07-.83-1.91-.83h-7.41v-3.52h8.1c3.9,0,5.84,2.15,5.84,6.44v13.42h-3.99Zm-9.96,0v-11.69h3.99v11.69h-3.99Z"/>
      <path class="uuid-c45bf56c-652e-408e-b9c5-fada1fd4c81a" d="m732.25,181.77v-12.89c0-1.2-.22-2.07-.65-2.62-.43-.55-1.07-.83-1.91-.83h-7.41v-3.52h8.1c3.9,0,5.84,2.15,5.84,6.44v13.42h-3.99Zm-9.96,0v-11.69h3.99v11.69h-3.99Z"/>
      <path class="uuid-c45bf56c-652e-408e-b9c5-fada1fd4c81a" d="m746.3,181.77v-3.55h1.13c1,0,1.49-.74,1.49-2.22v-10.56h-2.56v-3.52h10.2c3.9,0,5.85,2.15,5.85,6.44v13.42h-3.99v-12.89c0-1.2-.21-2.07-.63-2.62-.42-.55-1.06-.83-1.93-.83h-2.96v10.76c0,1.88-.35,3.28-1.05,4.2-.7.92-1.81,1.38-3.34,1.38h-2.23Z"/>
      <path class="uuid-c45bf56c-652e-408e-b9c5-fada1fd4c81a" d="m766,181.77v-5.25c0-1.88.27-3.49.81-4.83.54-1.34,1.36-2.34,2.44-3.01l-3.69-6.78h4.38l4.92,9.43c.42-.49.71-1.11.86-1.88.15-.76.23-1.71.23-2.84v-4.72h3.95v4.72c0,1.9-.28,3.53-.85,4.87s-1.4,2.34-2.51,3.01l3.99,7.27h-4.38l-5.18-9.87c-.38.49-.64,1.1-.8,1.84-.16.74-.23,1.67-.23,2.77v5.25h-3.95Z"/>
    </g>
    <g>
      <path class="uuid-c45bf56c-652e-408e-b9c5-fada1fd4c81a" d="m266.76,63.63v-19.86h8.47c3.92,0,5.88,2.15,5.88,6.44v13.42h-14.35Zm3.99-3.55h6.38v-9.33c0-1.2-.22-2.07-.65-2.62-.43-.55-1.08-.83-1.94-.83h-3.79v12.79Z"/>
      <path class="uuid-c45bf56c-652e-408e-b9c5-fada1fd4c81a" d="m285.46,63.63v-19.86h3.99v19.86h-3.99Z"/>
      <path class="uuid-c45bf56c-652e-408e-b9c5-fada1fd4c81a" d="m293.63,56.56v-12.79h4.05v9.2l-2.03,3.59h-2.03Z"/>
      <path class="uuid-c45bf56c-652e-408e-b9c5-fada1fd4c81a" d="m307.05,63.63v-16.34h-7.31v-3.52h13.95v3.52h-2.66v16.34h-3.99Z"/>
      <path class="uuid-c45bf56c-652e-408e-b9c5-fada1fd4c81a" d="m325.28,43.41c1.28,0,2.31.31,3.07.93.76.62,1.31,1.48,1.64,2.57.33,1.1.5,2.39.5,3.87v12.85h-7.57v-3.55h3.59v-8.83c0-1.44-.18-2.5-.55-3.17s-.99-1.01-1.88-1.01c-.95,0-1.69.45-2.21,1.36-.52.91-.9,2.52-1.15,4.85l-1.13,10.36h-3.99l1.43-13.29-1.43-6.58h3.99l.56,2.92h.17c.47-.91,1.06-1.68,1.79-2.33.73-.64,1.78-.96,3.16-.96Z"/>
      <path class="uuid-c45bf56c-652e-408e-b9c5-fada1fd4c81a" d="m343.85,43.77h9.23v2.69l-5.35,17.17h-4.05l5.15-16.34h-8.97v-8.9h3.99v5.38Z"/>
      <path class="uuid-c45bf56c-652e-408e-b9c5-fada1fd4c81a" d="m354.44,63.63v-3.55h4.92c1.28,0,2.26-.51,2.92-1.54.66-1.03,1-2.64,1-4.83s-.34-3.78-1.03-4.83c-.69-1.05-1.68-1.58-2.99-1.58h-4.82v-3.52h5.02c2.46,0,4.4.86,5.81,2.57,1.42,1.72,2.13,4.16,2.13,7.32,0,1.95-.28,3.67-.85,5.16-.56,1.5-1.43,2.67-2.59,3.52-1.16.85-2.64,1.28-4.43,1.28h-5.08Z"/>
      <path class="uuid-c45bf56c-652e-408e-b9c5-fada1fd4c81a" d="m369.39,63.63v-3.55h7.81v-9.3c0-1.26-.22-2.16-.66-2.69-.44-.53-1.1-.8-1.96-.8h-5.18v-3.52h5.95c1.9,0,3.35.53,4.35,1.59,1,1.06,1.49,2.69,1.49,4.88v9.83h2.33v3.55h-14.12Z"/>
      <path class="uuid-f96c7292-2878-477f-99f3-a1ea763d9e58" d="m399.42,40.58c-2.42,3.26-4.19,7.57-4.19,13.59s1.83,10.16,4.19,13.49h-2.29c-2.09-2.76-4.35-7.01-4.35-13.49.03-6.54,2.26-10.8,4.35-13.59h2.29Z"/>
      <path class="uuid-f96c7292-2878-477f-99f3-a1ea763d9e58" d="m400.98,63.63v-4.98h1.06c.82,0,1.23-.51,1.23-1.53v-8.74h-2.29v-4.98h11.13c2.1,0,3.74.57,4.92,1.71,1.17,1.14,1.76,2.87,1.76,5.2v13.32h-5.88v-12.95c0-1.53-.64-2.29-1.93-2.29h-1.83v8.8c0,2.17-.43,3.79-1.29,4.85-.86,1.06-2.24,1.59-4.12,1.59h-2.76Z"/>
      <path class="uuid-f96c7292-2878-477f-99f3-a1ea763d9e58" d="m422.1,63.63v-20.23h5.85v20.23h-5.85Z"/>
      <path class="uuid-f96c7292-2878-477f-99f3-a1ea763d9e58" d="m436.32,43.41h9.03v3.52l-5.41,16.71h-5.95l4.98-15.25h-8.54v-10h5.88v5.02Z"/>
      <path class="uuid-f96c7292-2878-477f-99f3-a1ea763d9e58" d="m447.88,63.63v-20.23h5.85v20.23h-5.85Z"/>
      <path class="uuid-f96c7292-2878-477f-99f3-a1ea763d9e58" d="m463.49,63.63v-15.25h-7.37v-4.98h15.78v4.98h-2.52v15.25h-5.88Z"/>
      <path class="uuid-f96c7292-2878-477f-99f3-a1ea763d9e58" d="m472.69,64v-5.31c1.4-.44,2.48-1.05,3.25-1.83.4-.42.71-.89.93-1.41.22-.52.33-1.12.33-1.81v-3.65c0-1.06-.42-1.59-1.26-1.59h-2.26v-4.98h4.12c1.84,0,3.17.53,4,1.58.83,1.05,1.25,2.6,1.25,4.63v7.57l.83,6.44h-4.75l-.96-3.82h-.13c-.66,1.04-1.44,1.89-2.33,2.54s-1.89,1.2-3.02,1.64Z"/>
      <path class="uuid-f96c7292-2878-477f-99f3-a1ea763d9e58" d="m491.52,55.1c0-5.35-2.09-9.83-4.78-12.86h3.02c2.03,2.26,4.45,6.78,4.45,12.69s-2.49,10.5-4.45,12.82h-3.06c2.99-3.36,4.82-7.71,4.82-12.66Z"/>
      <path class="uuid-c45bf56c-652e-408e-b9c5-fada1fd4c81a" d="m504.47,63.63v-3.55h1.13c1,0,1.49-.74,1.49-2.23v-10.56h-2.56v-3.52h10.2c3.9,0,5.85,2.15,5.85,6.44v13.42h-3.99v-12.89c0-1.2-.21-2.07-.63-2.62s-1.06-.83-1.93-.83h-2.96v10.76c0,1.88-.35,3.28-1.05,4.2-.7.92-1.81,1.38-3.34,1.38h-2.23Z"/>
      <path class="uuid-c45bf56c-652e-408e-b9c5-fada1fd4c81a" d="m524.93,63.63v-19.86h3.99v19.86h-3.99Z"/>
      <path class="uuid-c45bf56c-652e-408e-b9c5-fada1fd4c81a" d="m538.82,63.63v-16.34h-7.31v-3.52h13.95v3.52h-2.66v16.34h-3.99Z"/>
      <path class="uuid-c45bf56c-652e-408e-b9c5-fada1fd4c81a" d="m548.15,63.63v-19.86h3.99v19.86h-3.99Z"/>
      <path class="uuid-c45bf56c-652e-408e-b9c5-fada1fd4c81a" d="m555.06,63.63v-3.55h7.81v-9.3c0-1.26-.22-2.16-.66-2.69-.44-.53-1.1-.8-1.96-.8h-5.18v-3.52h5.95c1.9,0,3.35.53,4.35,1.59,1,1.06,1.49,2.69,1.49,4.88v9.83h2.33v3.55h-14.12Z"/>
      <path class="uuid-c45bf56c-652e-408e-b9c5-fada1fd4c81a" d="m570.07,63.63v-3.55h3.82l-2.52-16.31h3.99l2.39,15.88c1.26-.44,2.12-1.32,2.57-2.64.45-1.32.78-3.18.98-5.6l.63-7.64h3.99l-.63,8.1c-.11,1.53-.32,3-.61,4.4s-.8,2.66-1.49,3.77c-.7,1.11-1.69,1.98-2.97,2.62-1.29.64-2.96.96-5.02.96h-5.12Z"/>
      <path class="uuid-c45bf56c-652e-408e-b9c5-fada1fd4c81a" d="m595.94,63.63l-1.79-19.86h3.95l.83,9.13.07-.03c.6-.2,1.06-.46,1.38-.8s.56-.81.71-1.43c.15-.62.28-1.47.37-2.56l.37-4.32h3.99l-.4,4.65c-.13,1.51-.38,2.75-.75,3.74s-.94,1.79-1.73,2.42-1.88,1.17-3.27,1.61l-.4.13.33,3.75h1.46c1.7,0,3.03-.29,3.99-.86.95-.58,1.66-1.5,2.11-2.77.45-1.27.77-2.95.95-5.03l.6-7.64h3.99l-.63,8.1c-.13,1.64-.4,3.17-.8,4.6-.4,1.43-1,2.68-1.79,3.75-.8,1.07-1.84,1.91-3.14,2.51-1.29.6-2.91.9-4.83.9h-5.55Z"/>
      <path class="uuid-c45bf56c-652e-408e-b9c5-fada1fd4c81a" d="m615.08,56.56v-12.79h4.05v9.2l-2.03,3.59h-2.03Z"/>
      <path class="uuid-c45bf56c-652e-408e-b9c5-fada1fd4c81a" d="m621.22,63.93v-3.89c1.35-.64,2.45-1.52,3.29-2.62.97-1.31,1.46-2.86,1.46-4.65v-3.29c0-.73-.12-1.28-.35-1.64s-.64-.55-1.21-.55h-1.69v-3.52h3.02c1.44,0,2.5.43,3.17,1.3.67.86,1.01,2.18,1.01,3.95v8.2l.76,6.41h-3.45l-.76-4.55h-.1c-.51,1.02-1.23,1.99-2.18,2.91-.94.92-1.93,1.57-2.97,1.94Z"/>
      <path class="uuid-c45bf56c-652e-408e-b9c5-fada1fd4c81a" d="m644.04,63.63v-12.89c0-1.2-.22-2.07-.65-2.62s-1.07-.83-1.91-.83h-7.41v-3.52h8.1c3.9,0,5.84,2.15,5.84,6.44v13.42h-3.99Zm-9.96,0v-11.69h3.99v11.69h-3.99Z"/>
      <path class="uuid-c45bf56c-652e-408e-b9c5-fada1fd4c81a" d="m654.27,43.77h9.23v2.69l-5.35,17.17h-4.05l5.15-16.34h-8.97v-8.9h3.99v5.38Z"/>
      <path class="uuid-c45bf56c-652e-408e-b9c5-fada1fd4c81a" d="m674.06,71.61v-22.12c0-.73-.12-1.28-.35-1.64s-.64-.55-1.21-.55h-1.1v-3.52h2.42c2.83,0,4.25,1.75,4.25,5.25v22.59h-4.02Z"/>
      <path class="uuid-c45bf56c-652e-408e-b9c5-fada1fd4c81a" d="m681.3,63.63v-3.55h1.13c1,0,1.49-.74,1.49-2.23v-10.56h-2.56v-3.52h10.2c3.9,0,5.85,2.15,5.85,6.44v13.42h-3.99v-12.89c0-1.2-.21-2.07-.63-2.62s-1.06-.83-1.93-.83h-2.96v10.76c0,1.88-.35,3.28-1.05,4.2-.7.92-1.81,1.38-3.34,1.38h-2.23Z"/>
      <path class="uuid-c45bf56c-652e-408e-b9c5-fada1fd4c81a" d="m701.43,56.56v-12.79h4.05v9.2l-2.03,3.59h-2.03Z"/>
      <path class="uuid-c45bf56c-652e-408e-b9c5-fada1fd4c81a" d="m708.11,63.63v-3.55h4.62v-10.6c0-.73-.12-1.28-.35-1.64s-.64-.55-1.21-.55h-1.73v-3.52h3.06c2.81,0,4.22,1.75,4.22,5.25v14.61h-8.6Z"/>
    </g>
    <g>
      <path class="uuid-c45bf56c-652e-408e-b9c5-fada1fd4c81a" d="m307.73,97.43c0-1.73,1.2-3.09,3.19-3.09s3.12,1.36,3.12,3.09-1.16,3.09-3.12,3.09-3.19-1.39-3.19-3.09Z"/>
      <path class="uuid-c45bf56c-652e-408e-b9c5-fada1fd4c81a" d="m317.86,106.5v-3.55h1.13c1,0,1.49-.74,1.49-2.23v-10.56h-2.56v-3.52h10.2c3.9,0,5.85,2.15,5.85,6.44v13.42h-3.99v-12.89c0-1.2-.21-2.07-.63-2.62s-1.06-.83-1.93-.83h-2.96v10.76c0,1.88-.35,3.28-1.05,4.2-.7.92-1.81,1.38-3.34,1.38h-2.23Z"/>
      <path class="uuid-c45bf56c-652e-408e-b9c5-fada1fd4c81a" d="m338.32,106.5v-19.86h3.99v19.86h-3.99Z"/>
      <path class="uuid-c45bf56c-652e-408e-b9c5-fada1fd4c81a" d="m347.12,106.5l-1.79-19.86h3.95l.83,9.13.07-.03c.6-.2,1.06-.46,1.38-.8s.56-.81.71-1.43c.15-.62.28-1.47.37-2.56l.37-4.32h3.99l-.4,4.65c-.13,1.51-.38,2.75-.75,3.74s-.94,1.79-1.73,2.42-1.88,1.17-3.27,1.61l-.4.13.33,3.75h1.46c1.7,0,3.03-.29,3.99-.86.95-.58,1.66-1.5,2.11-2.77.45-1.27.77-2.95.95-5.03l.6-7.64h3.99l-.63,8.1c-.13,1.64-.4,3.17-.8,4.6-.4,1.43-1,2.68-1.79,3.75-.8,1.07-1.84,1.91-3.14,2.51-1.29.6-2.91.9-4.83.9h-5.55Z"/>
      <path class="uuid-c45bf56c-652e-408e-b9c5-fada1fd4c81a" d="m372.03,106.5v-16.34h-7.31v-3.52h13.95v3.52h-2.66v16.34h-3.99Z"/>
      <path class="uuid-c45bf56c-652e-408e-b9c5-fada1fd4c81a" d="m389.9,86.64c3.9,0,5.85,2.15,5.85,6.44v13.42h-3.99v-12.89c0-1.2-.22-2.07-.65-2.62s-1.07-.83-1.91-.83h-3.85v16.34h-3.99v-19.86h8.54Z"/>
      <path class="uuid-c45bf56c-652e-408e-b9c5-fada1fd4c81a" d="m405.81,106.5v-3.55h1.13c1,0,1.49-.74,1.49-2.23v-10.56h-2.56v-3.52h10.2c3.9,0,5.85,2.15,5.85,6.44v13.42h-3.99v-12.89c0-1.2-.21-2.07-.63-2.62s-1.06-.83-1.93-.83h-2.96v10.76c0,1.88-.35,3.28-1.05,4.2-.7.92-1.81,1.38-3.34,1.38h-2.23Z"/>
      <path class="uuid-c45bf56c-652e-408e-b9c5-fada1fd4c81a" d="m426.27,106.5v-19.86h3.99v19.86h-3.99Z"/>
      <path class="uuid-c45bf56c-652e-408e-b9c5-fada1fd4c81a" d="m440.15,106.5v-16.34h-7.31v-3.52h13.95v3.52h-2.66v16.34h-3.99Z"/>
      <path class="uuid-c45bf56c-652e-408e-b9c5-fada1fd4c81a" d="m449.49,106.5v-19.86h3.99v19.86h-3.99Z"/>
      <path class="uuid-c45bf56c-652e-408e-b9c5-fada1fd4c81a" d="m456.4,106.5v-3.55h7.81v-9.3c0-1.26-.22-2.16-.66-2.69-.44-.53-1.1-.8-1.96-.8h-5.18v-3.52h5.95c1.9,0,3.35.53,4.35,1.59,1,1.06,1.49,2.69,1.49,4.88v9.83h2.33v3.55h-14.12Z"/>
      <path class="uuid-c45bf56c-652e-408e-b9c5-fada1fd4c81a" d="m471.41,106.5v-3.55h3.82l-2.52-16.31h3.99l2.39,15.88c1.26-.44,2.12-1.32,2.57-2.64.45-1.32.78-3.18.98-5.6l.63-7.64h3.99l-.63,8.1c-.11,1.53-.32,3-.61,4.4s-.8,2.66-1.49,3.77c-.7,1.11-1.69,1.98-2.97,2.62-1.29.64-2.96.96-5.02.96h-5.12Z"/>
      <path class="uuid-c45bf56c-652e-408e-b9c5-fada1fd4c81a" d="m492.37,86.64h9.23v2.69l-5.35,17.17h-4.05l5.15-16.34h-8.97v-8.9h3.99v5.38Z"/>
      <path class="uuid-c45bf56c-652e-408e-b9c5-fada1fd4c81a" d="m512.16,114.47v-22.12c0-.73-.12-1.28-.35-1.64s-.64-.55-1.21-.55h-1.1v-3.52h2.42c2.83,0,4.25,1.75,4.25,5.25v22.59h-4.02Z"/>
      <path class="uuid-c45bf56c-652e-408e-b9c5-fada1fd4c81a" d="m519.4,106.5v-3.55h1.13c1,0,1.49-.74,1.49-2.23v-10.56h-2.56v-3.52h10.2c3.9,0,5.85,2.15,5.85,6.44v13.42h-3.99v-12.89c0-1.2-.21-2.07-.63-2.62s-1.06-.83-1.93-.83h-2.96v10.76c0,1.88-.35,3.28-1.05,4.2-.7.92-1.81,1.38-3.34,1.38h-2.23Z"/>
      <path class="uuid-c45bf56c-652e-408e-b9c5-fada1fd4c81a" d="m538.5,106.5v-3.55h4.62v-10.6c0-.73-.12-1.28-.35-1.64s-.64-.55-1.21-.55h-1.73v-3.52h3.06c2.81,0,4.22,1.75,4.22,5.25v14.61h-8.6Z"/>
      <path class="uuid-c45bf56c-652e-408e-b9c5-fada1fd4c81a" d="m551.12,99.42v-12.79h4.05v9.2l-2.03,3.59h-2.03Z"/>
      <path class="uuid-c45bf56c-652e-408e-b9c5-fada1fd4c81a" d="m558.06,106.5v-3.55h1.13c1,0,1.49-.74,1.49-2.23v-10.56h-2.56v-3.52h10.2c3.9,0,5.85,2.15,5.85,6.44v13.42h-3.99v-12.89c0-1.2-.21-2.07-.63-2.62s-1.06-.83-1.93-.83h-2.96v10.76c0,1.88-.35,3.28-1.05,4.2-.7.92-1.81,1.38-3.34,1.38h-2.23Z"/>
      <path class="uuid-c45bf56c-652e-408e-b9c5-fada1fd4c81a" d="m584.24,106.5v-3.55h1.13c1,0,1.49-.74,1.49-2.23v-10.56h-2.56v-3.52h10.2c3.9,0,5.85,2.15,5.85,6.44v13.42h-3.99v-12.89c0-1.2-.21-2.07-.63-2.62s-1.06-.83-1.93-.83h-2.96v10.76c0,1.88-.35,3.28-1.05,4.2-.7.92-1.81,1.38-3.34,1.38h-2.23Z"/>
      <path class="uuid-c45bf56c-652e-408e-b9c5-fada1fd4c81a" d="m604.7,106.5v-19.86h3.99v19.86h-3.99Z"/>
      <path class="uuid-c45bf56c-652e-408e-b9c5-fada1fd4c81a" d="m612.44,106.5v-3.55h6.74c1.24,0,2.18-.51,2.82-1.54.64-1.03.96-2.63.96-4.8s-.33-3.81-1-4.87-1.67-1.58-3.02-1.58h-2.72v1.89c0,1.31.13,2.2.38,2.69.25.49.69.73,1.31.73.13,0,.27,0,.42-.02.14-.01.27-.02.38-.02v3.52c-.44.07-.92.1-1.43.1-1.9,0-3.22-.56-3.94-1.69-.72-1.13-1.08-2.81-1.08-5.05v-5.68h6.88c2.46,0,4.39.86,5.81,2.57,1.42,1.72,2.12,4.16,2.12,7.32,0,1.93-.28,3.64-.85,5.13-.56,1.5-1.43,2.67-2.59,3.54-1.16.86-2.62,1.29-4.37,1.29h-6.84Z"/>
      <path class="uuid-c45bf56c-652e-408e-b9c5-fada1fd4c81a" d="m629.54,99.42v-12.79h4.05v9.2l-2.03,3.59h-2.03Z"/>
      <path class="uuid-c45bf56c-652e-408e-b9c5-fada1fd4c81a" d="m642.96,106.5v-16.34h-7.31v-3.52h13.95v3.52h-2.66v16.34h-3.99Z"/>
      <path class="uuid-c45bf56c-652e-408e-b9c5-fada1fd4c81a" d="m650.6,106.5v-3.55h3.82l-2.52-16.31h3.99l2.39,15.88c1.26-.44,2.12-1.32,2.57-2.64.45-1.32.78-3.18.98-5.6l.63-7.64h3.99l-.63,8.1c-.11,1.53-.32,3-.61,4.4s-.8,2.66-1.49,3.77c-.7,1.11-1.69,1.98-2.97,2.62-1.29.64-2.96.96-5.02.96h-5.12Z"/>
      <path class="uuid-c45bf56c-652e-408e-b9c5-fada1fd4c81a" d="m669.73,97.43c0-1.73,1.2-3.09,3.19-3.09s3.12,1.36,3.12,3.09-1.16,3.09-3.12,3.09-3.19-1.39-3.19-3.09Z"/>
    </g>
    <g>
      <path class="uuid-c45bf56c-652e-408e-b9c5-fada1fd4c81a" d="m160.41,805.35c0-1.73,1.2-3.09,3.19-3.09s3.12,1.36,3.12,3.09-1.16,3.09-3.12,3.09-3.19-1.39-3.19-3.09Z"/>
      <path class="uuid-c45bf56c-652e-408e-b9c5-fada1fd4c81a" d="m171.14,814.42v-19.86h8.47c3.92,0,5.88,2.15,5.88,6.44v13.42h-14.35Zm3.99-3.55h6.38v-9.33c0-1.2-.22-2.07-.65-2.62-.43-.55-1.08-.83-1.94-.83h-3.79v12.79Z"/>
      <path class="uuid-c45bf56c-652e-408e-b9c5-fada1fd4c81a" d="m188.51,807.34v-12.79h4.05v9.2l-2.03,3.59h-2.03Z"/>
      <path class="uuid-c45bf56c-652e-408e-b9c5-fada1fd4c81a" d="m201.93,814.42v-16.34h-7.31v-3.52h13.95v3.52h-2.66v16.34h-3.99Z"/>
      <path class="uuid-c45bf56c-652e-408e-b9c5-fada1fd4c81a" d="m211.26,814.42v-19.86h3.99v19.86h-3.99Z"/>
      <path class="uuid-c45bf56c-652e-408e-b9c5-fada1fd4c81a" d="m228.66,794.19c1.28,0,2.31.31,3.07.93.76.62,1.31,1.48,1.64,2.57.33,1.1.5,2.39.5,3.87v12.85h-7.57v-3.55h3.59v-8.83c0-1.44-.18-2.5-.55-3.17s-.99-1.01-1.88-1.01c-.95,0-1.69.45-2.21,1.36-.52.91-.9,2.52-1.15,4.85l-1.13,10.36h-3.99l1.43-13.29-1.43-6.58h3.99l.56,2.92h.17c.47-.91,1.06-1.68,1.79-2.33.73-.64,1.78-.96,3.16-.96Z"/>
      <path class="uuid-c45bf56c-652e-408e-b9c5-fada1fd4c81a" d="m237.76,807.34v-12.79h4.05v9.2l-2.03,3.59h-2.03Z"/>
      <path class="uuid-c45bf56c-652e-408e-b9c5-fada1fd4c81a" d="m247.99,794.56h9.23v2.69l-5.35,17.17h-4.05l5.15-16.34h-8.97v-8.9h3.99v5.38Z"/>
      <path class="uuid-c45bf56c-652e-408e-b9c5-fada1fd4c81a" d="m262.38,794.56h9.23v2.69l-5.35,17.17h-4.05l5.15-16.34h-8.97v-8.9h3.99v5.38Z"/>
      <path class="uuid-c45bf56c-652e-408e-b9c5-fada1fd4c81a" d="m282.17,822.39v-22.12c0-.73-.12-1.28-.35-1.64s-.64-.55-1.21-.55h-1.1v-3.52h2.42c2.83,0,4.25,1.75,4.25,5.25v22.59h-4.02Z"/>
      <path class="uuid-c45bf56c-652e-408e-b9c5-fada1fd4c81a" d="m290.51,814.42v-19.86h3.99v19.86h-3.99Z"/>
      <path class="uuid-c45bf56c-652e-408e-b9c5-fada1fd4c81a" d="m299.31,814.42l-1.79-19.86h3.95l.83,9.13.07-.03c.6-.2,1.06-.46,1.38-.8.32-.33.56-.81.71-1.43.15-.62.28-1.47.37-2.56l.37-4.32h3.99l-.4,4.65c-.13,1.51-.38,2.75-.75,3.74-.37.99-.94,1.79-1.73,2.42s-1.88,1.17-3.27,1.61l-.4.13.33,3.75h1.46c1.71,0,3.03-.29,3.99-.86.95-.58,1.65-1.5,2.11-2.77.45-1.27.77-2.95.95-5.03l.6-7.64h3.99l-.63,8.1c-.13,1.64-.4,3.17-.8,4.6-.4,1.43-1,2.68-1.79,3.75-.8,1.07-1.84,1.91-3.14,2.51-1.3.6-2.91.9-4.83.9h-5.55Z"/>
      <path class="uuid-c45bf56c-652e-408e-b9c5-fada1fd4c81a" d="m318.07,814.42v-5.25c0-1.88.27-3.49.81-4.83.54-1.34,1.36-2.34,2.44-3.01l-3.69-6.78h4.38l4.92,9.43c.42-.49.71-1.11.86-1.88.15-.76.23-1.71.23-2.84v-4.72h3.95v4.72c0,1.9-.28,3.53-.85,4.87-.56,1.34-1.4,2.34-2.51,3.01l3.99,7.27h-4.38l-5.18-9.86c-.38.49-.64,1.1-.8,1.84-.16.74-.23,1.67-.23,2.77v5.25h-3.95Z"/>
      <path class="uuid-c45bf56c-652e-408e-b9c5-fada1fd4c81a" d="m343.25,814.42v-12.89c0-1.2-.21-2.07-.63-2.62-.42-.55-1.06-.83-1.93-.83h-6.64v-3.52h7.34c3.9,0,5.85,2.15,5.85,6.44v13.42h-3.99Z"/>
      <path class="uuid-c45bf56c-652e-408e-b9c5-fada1fd4c81a" d="m361.55,814.42v-12.89c0-1.2-.22-2.07-.65-2.62s-1.07-.83-1.91-.83h-7.41v-3.52h8.1c3.9,0,5.85,2.15,5.85,6.44v13.42h-3.99Zm-9.96,0v-11.69h3.99v11.69h-3.99Z"/>
      <path class="uuid-c45bf56c-652e-408e-b9c5-fada1fd4c81a" d="m375,814.42v-3.55h3.82l-2.52-16.31h3.99l2.39,15.88c1.26-.44,2.12-1.32,2.57-2.64.45-1.32.78-3.18.98-5.6l.63-7.64h3.99l-.63,8.1c-.11,1.53-.32,3-.61,4.4s-.8,2.66-1.49,3.77c-.7,1.11-1.69,1.98-2.97,2.62s-2.96.96-5.02.96h-5.12Z"/>
      <path class="uuid-c45bf56c-652e-408e-b9c5-fada1fd4c81a" d="m393.77,814.42v-19.86h3.99v19.86h-3.99Z"/>
      <path class="uuid-c45bf56c-652e-408e-b9c5-fada1fd4c81a" d="m400.68,814.42v-3.55h7.81v-9.3c0-1.26-.22-2.16-.66-2.69s-1.1-.8-1.96-.8h-5.18v-3.52h5.95c1.9,0,3.35.53,4.35,1.59,1,1.06,1.49,2.69,1.49,4.88v9.83h2.33v3.55h-14.12Z"/>
      <path class="uuid-c45bf56c-652e-408e-b9c5-fada1fd4c81a" d="m417.68,814.42l-1.79-19.86h3.95l.83,9.13.07-.03c.6-.2,1.06-.46,1.38-.8.32-.33.56-.81.71-1.43.15-.62.28-1.47.37-2.56l.37-4.32h3.99l-.4,4.65c-.13,1.51-.38,2.75-.75,3.74-.37.99-.94,1.79-1.73,2.42s-1.88,1.17-3.27,1.61l-.4.13.33,3.75h1.46c1.71,0,3.03-.29,3.99-.86.95-.58,1.65-1.5,2.11-2.77.45-1.27.77-2.95.95-5.03l.6-7.64h3.99l-.63,8.1c-.13,1.64-.4,3.17-.8,4.6-.4,1.43-1,2.68-1.79,3.75-.8,1.07-1.84,1.91-3.14,2.51-1.3.6-2.91.9-4.83.9h-5.55Z"/>
      <path class="uuid-c45bf56c-652e-408e-b9c5-fada1fd4c81a" d="m435.62,814.42v-3.55h7.81v-9.3c0-1.26-.22-2.16-.66-2.69s-1.1-.8-1.96-.8h-5.18v-3.52h5.95c1.9,0,3.35.53,4.35,1.59,1,1.06,1.49,2.69,1.49,4.88v9.83h2.33v3.55h-14.12Z"/>
      <path class="uuid-c45bf56c-652e-408e-b9c5-fada1fd4c81a" d="m458.64,814.42v-19.86h8.47c3.92,0,5.88,2.15,5.88,6.44v13.42h-14.35Zm3.99-3.55h6.38v-9.33c0-1.2-.22-2.07-.65-2.62-.43-.55-1.08-.83-1.94-.83h-3.79v12.79Z"/>
      <path class="uuid-c45bf56c-652e-408e-b9c5-fada1fd4c81a" d="m476.01,807.34v-12.79h4.05v9.2l-2.03,3.59h-2.03Z"/>
      <path class="uuid-c45bf56c-652e-408e-b9c5-fada1fd4c81a" d="m483.71,807.34v-12.79h4.05v9.2l-2.03,3.59h-2.03Z"/>
      <path class="uuid-c45bf56c-652e-408e-b9c5-fada1fd4c81a" d="m497.73,814.42l4.48-16.34h-10.53v-3.52h14.68v2.69l-4.58,17.17h-4.05Zm-6.04,7.97v-20.19h4.02v20.19h-4.02Z"/>
      <path class="uuid-c45bf56c-652e-408e-b9c5-fada1fd4c81a" d="m508.26,814.42v-3.55h1.13c1,0,1.49-.74,1.49-2.23v-10.56h-2.56v-3.52h10.2c3.9,0,5.85,2.15,5.85,6.44v13.42h-3.99v-12.89c0-1.2-.21-2.07-.63-2.62s-1.06-.83-1.93-.83h-2.96v10.76c0,1.88-.35,3.28-1.05,4.2-.7.92-1.81,1.38-3.34,1.38h-2.23Z"/>
      <path class="uuid-c45bf56c-652e-408e-b9c5-fada1fd4c81a" d="m528.39,807.34v-12.79h4.05v9.2l-2.03,3.59h-2.03Z"/>
      <path class="uuid-c45bf56c-652e-408e-b9c5-fada1fd4c81a" d="m553.2,814.42v-12.89c0-1.2-.22-2.07-.65-2.62s-1.07-.83-1.91-.83h-7.41v-3.52h8.1c3.9,0,5.84,2.15,5.84,6.44v13.42h-3.99Zm-9.96,0v-11.69h3.99v11.69h-3.99Z"/>
      <path class="uuid-c45bf56c-652e-408e-b9c5-fada1fd4c81a" d="m559.94,814.42v-3.55h4.92c1.28,0,2.26-.51,2.92-1.54.66-1.03,1-2.64,1-4.83s-.34-3.78-1.03-4.83c-.69-1.05-1.68-1.58-2.99-1.58h-4.82v-3.52h5.02c2.46,0,4.4.86,5.81,2.57,1.42,1.72,2.13,4.16,2.13,7.32,0,1.95-.28,3.67-.85,5.16-.56,1.5-1.43,2.67-2.59,3.52-1.16.85-2.64,1.28-4.43,1.28h-5.08Z"/>
      <path class="uuid-c45bf56c-652e-408e-b9c5-fada1fd4c81a" d="m576.48,814.42v-19.86h3.99v19.86h-3.99Z"/>
      <path class="uuid-c45bf56c-652e-408e-b9c5-fada1fd4c81a" d="m592.29,814.42v-12.89c0-1.2-.21-2.07-.63-2.62-.42-.55-1.06-.83-1.93-.83h-6.64v-3.52h7.34c3.9,0,5.85,2.15,5.85,6.44v13.42h-3.99Z"/>
      <path class="uuid-c45bf56c-652e-408e-b9c5-fada1fd4c81a" d="m598.93,814.42v-3.55h3.82l-2.52-16.31h3.99l2.39,15.88c1.26-.44,2.12-1.32,2.57-2.64.45-1.32.78-3.18.98-5.6l.63-7.64h3.99l-.63,8.1c-.11,1.53-.32,3-.61,4.4s-.8,2.66-1.49,3.77c-.7,1.11-1.69,1.98-2.97,2.62-1.29.64-2.96.96-5.02.96h-5.12Z"/>
      <path class="uuid-c45bf56c-652e-408e-b9c5-fada1fd4c81a" d="m616.6,814.42v-3.55h1.13c1,0,1.49-.74,1.49-2.23v-10.56h-2.56v-3.52h10.2c3.9,0,5.85,2.15,5.85,6.44v13.42h-3.99v-12.89c0-1.2-.21-2.07-.63-2.62s-1.06-.83-1.93-.83h-2.96v10.76c0,1.88-.35,3.28-1.05,4.2-.7.92-1.81,1.38-3.34,1.38h-2.23Z"/>
      <path class="uuid-c45bf56c-652e-408e-b9c5-fada1fd4c81a" d="m647.03,814.42v-12.89c0-1.2-.22-2.07-.65-2.62s-1.07-.83-1.91-.83h-7.41v-3.52h8.1c3.9,0,5.84,2.15,5.84,6.44v13.42h-3.99Zm-9.96,0v-11.69h3.99v11.69h-3.99Z"/>
      <path class="uuid-c45bf56c-652e-408e-b9c5-fada1fd4c81a" d="m661.08,814.42v-3.55h1.13c1,0,1.49-.74,1.49-2.23v-10.56h-2.56v-3.52h10.2c3.9,0,5.85,2.15,5.85,6.44v13.42h-3.99v-12.89c0-1.2-.21-2.07-.63-2.62s-1.06-.83-1.93-.83h-2.96v10.76c0,1.88-.35,3.28-1.05,4.2-.7.92-1.81,1.38-3.34,1.38h-2.23Z"/>
      <path class="uuid-c45bf56c-652e-408e-b9c5-fada1fd4c81a" d="m690.07,794.56c3.9,0,5.85,2.15,5.85,6.44v13.42h-3.99v-12.89c0-1.2-.22-2.07-.65-2.62s-1.07-.83-1.91-.83h-3.85v16.34h-3.99v-19.86h8.54Z"/>
      <path class="uuid-c45bf56c-652e-408e-b9c5-fada1fd4c81a" d="m699.64,807.34v-12.79h4.05v9.2l-2.03,3.59h-2.03Z"/>
      <path class="uuid-c45bf56c-652e-408e-b9c5-fada1fd4c81a" d="m706.58,814.42v-3.55h1.13c1,0,1.49-.74,1.49-2.23v-10.56h-2.56v-3.52h10.2c3.9,0,5.85,2.15,5.85,6.44v13.42h-3.99v-12.89c0-1.2-.21-2.07-.63-2.62s-1.06-.83-1.93-.83h-2.96v10.76c0,1.88-.35,3.28-1.05,4.2-.7.92-1.81,1.38-3.34,1.38h-2.23Z"/>
      <path class="uuid-c45bf56c-652e-408e-b9c5-fada1fd4c81a" d="m726.28,814.42v-3.55h6.74c1.24,0,2.18-.51,2.82-1.54.64-1.03.96-2.63.96-4.8s-.33-3.81-1-4.87-1.67-1.58-3.02-1.58h-2.72v1.89c0,1.31.13,2.2.38,2.69.25.49.69.73,1.31.73.13,0,.27,0,.42-.02.14-.01.27-.02.38-.02v3.52c-.44.07-.92.1-1.43.1-1.9,0-3.22-.56-3.94-1.69-.72-1.13-1.08-2.81-1.08-5.05v-5.68h6.88c2.46,0,4.39.86,5.81,2.57,1.42,1.72,2.12,4.16,2.12,7.32,0,1.93-.28,3.64-.85,5.13-.56,1.5-1.43,2.67-2.59,3.54-1.16.86-2.62,1.29-4.37,1.29h-6.84Z"/>
      <path class="uuid-c45bf56c-652e-408e-b9c5-fada1fd4c81a" d="m749.63,814.42v-3.55h3.82l-2.52-16.31h3.99l2.39,15.88c1.26-.44,2.12-1.32,2.57-2.64.45-1.32.78-3.18.98-5.6l.63-7.64h3.99l-.63,8.1c-.11,1.53-.32,3-.61,4.4s-.8,2.66-1.49,3.77c-.7,1.11-1.69,1.98-2.97,2.62-1.29.64-2.96.96-5.02.96h-5.12Z"/>
      <path class="uuid-c45bf56c-652e-408e-b9c5-fada1fd4c81a" d="m768.39,814.42v-19.86h3.99v19.86h-3.99Z"/>
      <path class="uuid-c45bf56c-652e-408e-b9c5-fada1fd4c81a" d="m784.2,814.42v-12.89c0-1.2-.21-2.07-.63-2.62-.42-.55-1.06-.83-1.93-.83h-6.64v-3.52h7.34c3.9,0,5.85,2.15,5.85,6.44v13.42h-3.99Z"/>
      <path class="uuid-c45bf56c-652e-408e-b9c5-fada1fd4c81a" d="m791.54,807.34v-12.79h4.05v9.2l-2.03,3.59h-2.03Z"/>
      <path class="uuid-c45bf56c-652e-408e-b9c5-fada1fd4c81a" d="m798.82,814.42v-5.25c0-1.88.27-3.49.81-4.83.54-1.34,1.36-2.34,2.44-3.01l-3.69-6.78h4.38l4.92,9.43c.42-.49.71-1.11.86-1.88.15-.76.23-1.71.23-2.84v-4.72h3.95v4.72c0,1.9-.28,3.53-.85,4.87s-1.4,2.34-2.51,3.01l3.99,7.27h-4.38l-5.18-9.86c-.38.49-.64,1.1-.8,1.84-.16.74-.23,1.67-.23,2.77v5.25h-3.95Z"/>
      <path class="uuid-c45bf56c-652e-408e-b9c5-fada1fd4c81a" d="m817.05,805.35c0-1.73,1.2-3.09,3.19-3.09s3.12,1.36,3.12,3.09-1.16,3.09-3.12,3.09-3.19-1.39-3.19-3.09Z"/>
    </g>
    <g>
      <path class="uuid-f96c7292-2878-477f-99f3-a1ea763d9e58" d="m384.06,674.53v-3h.95c.84,0,1.26-.62,1.26-1.88v-8.9h-2.16v-2.97h8.6c3.29,0,4.93,1.81,4.93,5.43v11.31h-3.36v-10.86c0-1.01-.18-1.75-.53-2.21-.35-.47-.9-.7-1.62-.7h-2.49v9.07c0,1.59-.29,2.77-.88,3.54-.59.78-1.53,1.16-2.81,1.16h-1.88Z"/>
      <path class="uuid-f96c7292-2878-477f-99f3-a1ea763d9e58" d="m401.31,674.53v-16.74h3.36v16.74h-3.36Z"/>
      <path class="uuid-f96c7292-2878-477f-99f3-a1ea763d9e58" d="m407.33,674.53v-3h3.89v-8.93c0-.62-.1-1.08-.29-1.39-.2-.31-.54-.46-1.02-.46h-1.46v-2.97h2.58c2.37,0,3.56,1.47,3.56,4.42v12.32h-7.25Z"/>
      <path class="uuid-f96c7292-2878-477f-99f3-a1ea763d9e58" d="m424.35,674.87c-1.57,0-2.85-.39-3.84-1.18s-1.71-1.84-2.17-3.16c-.46-1.33-.69-2.8-.69-4.42v-8.32h3.39v8.34c0,2.02.27,3.5.81,4.44.54.94,1.37,1.41,2.49,1.41,1.27,0,2.12-.55,2.56-1.64.44-1.09.66-2.64.66-4.63,0-1.7-.13-3.01-.41-3.95-.27-.93-.84-1.4-1.69-1.4-.28,0-.6.04-.97.11-.36.07-.7.19-.99.34v-2.88c.3-.09.68-.2,1.13-.31s.96-.17,1.5-.17c1.19,0,2.15.32,2.86.95.71.63,1.21,1.54,1.51,2.73.3,1.19.45,2.6.45,4.24,0,3.1-.55,5.46-1.65,7.07-1.1,1.62-2.75,2.42-4.96,2.42Z"/>
      <path class="uuid-f96c7292-2878-477f-99f3-a1ea763d9e58" d="m439.02,674.53l3.78-13.78h-8.88v-2.97h12.38v2.27l-3.86,14.48h-3.42Zm-5.1,6.72v-17.02h3.39v17.02h-3.39Z"/>
      <path class="uuid-f96c7292-2878-477f-99f3-a1ea763d9e58" d="m453.92,674.53v-4.42c0-1.59.23-2.94.69-4.07.46-1.13,1.14-1.97,2.06-2.53l-3.11-5.71h3.7l4.14,7.95c.35-.41.6-.94.73-1.58s.2-1.44.2-2.39v-3.98h3.33v3.98c0,1.61-.24,2.97-.71,4.1-.48,1.13-1.18,1.97-2.11,2.53l3.36,6.13h-3.7l-4.37-8.32c-.32.41-.54.93-.67,1.55-.13.62-.2,1.4-.2,2.34v4.42h-3.33Z"/>
      <path class="uuid-f96c7292-2878-477f-99f3-a1ea763d9e58" d="m470.83,657.79h7.78v2.27l-4.51,14.48h-3.42l4.34-13.78h-7.56v-7.5h3.36v4.54Z"/>
      <path class="uuid-f96c7292-2878-477f-99f3-a1ea763d9e58" d="m487.52,681.25v-18.65c0-.62-.1-1.08-.29-1.39-.2-.31-.54-.46-1.02-.46h-.92v-2.97h2.04c2.39,0,3.58,1.47,3.58,4.42v19.04h-3.39Z"/>
      <path class="uuid-f96c7292-2878-477f-99f3-a1ea763d9e58" d="m502.95,674.53v-10.86c0-1.01-.18-1.75-.55-2.21-.36-.47-.9-.7-1.61-.7h-6.24v-2.97h6.83c3.29,0,4.93,1.81,4.93,5.43v11.31h-3.36Zm-8.4,0v-9.86h3.36v9.86h-3.36Z"/>
      <path class="uuid-f96c7292-2878-477f-99f3-a1ea763d9e58" d="m510.23,674.53l-1.51-16.74h3.33l.7,7.7.06-.03c.5-.17.89-.39,1.16-.67s.47-.68.6-1.2c.13-.52.23-1.24.31-2.16l.31-3.64h3.36l-.34,3.92c-.11,1.27-.32,2.32-.63,3.15-.31.83-.79,1.51-1.46,2.04-.66.53-1.58.98-2.76,1.36l-.34.11.28,3.16h1.23c1.44,0,2.56-.24,3.36-.73s1.4-1.26,1.78-2.34c.38-1.07.65-2.49.8-4.24l.5-6.44h3.36l-.53,6.83c-.11,1.38-.34,2.67-.67,3.88-.34,1.2-.84,2.26-1.51,3.16s-1.55,1.61-2.65,2.11-2.45.76-4.07.76h-4.68Z"/>
      <path class="uuid-f96c7292-2878-477f-99f3-a1ea763d9e58" d="m531.51,674.53v-3h.95c.84,0,1.26-.62,1.26-1.88v-8.9h-2.16v-2.97h8.6c3.29,0,4.93,1.81,4.93,5.43v11.31h-3.36v-10.86c0-1.01-.18-1.75-.53-2.21-.35-.47-.9-.7-1.62-.7h-2.49v9.07c0,1.59-.29,2.77-.88,3.54-.59.78-1.53,1.16-2.81,1.16h-1.88Z"/>
      <path class="uuid-f96c7292-2878-477f-99f3-a1ea763d9e58" d="m548.76,674.53v-16.74h3.36v16.74h-3.36Z"/>
      <path class="uuid-f96c7292-2878-477f-99f3-a1ea763d9e58" d="m560.46,674.53v-13.78h-6.16v-2.97h11.76v2.97h-2.24v13.78h-3.36Z"/>
      <path class="uuid-f96c7292-2878-477f-99f3-a1ea763d9e58" d="m568.33,674.53v-16.74h3.36v16.74h-3.36Z"/>
      <path class="uuid-f96c7292-2878-477f-99f3-a1ea763d9e58" d="m574.15,674.53v-3h6.58v-7.84c0-1.06-.19-1.82-.56-2.27-.37-.45-.92-.67-1.65-.67h-4.37v-2.97h5.01c1.6,0,2.83.45,3.67,1.34.84.9,1.26,2.27,1.26,4.12v8.29h1.96v3h-11.9Z"/>
      <path class="uuid-f96c7292-2878-477f-99f3-a1ea763d9e58" d="m586.81,674.53v-3h3.22l-2.13-13.75h3.36l2.02,13.38c1.06-.37,1.79-1.12,2.17-2.23.38-1.11.66-2.68.83-4.72l.53-6.44h3.36l-.53,6.83c-.09,1.29-.27,2.53-.52,3.71-.25,1.19-.67,2.25-1.26,3.18-.59.93-1.42,1.67-2.51,2.21-1.08.54-2.49.81-4.23.81h-4.31Z"/>
      <path class="uuid-f96c7292-2878-477f-99f3-a1ea763d9e58" d="m377.77,691.39h7.78v2.27l-4.51,14.48h-3.42l4.34-13.78h-7.56v-7.5h3.36v4.54Z"/>
      <path class="uuid-f96c7292-2878-477f-99f3-a1ea763d9e58" d="m388.05,708.13v-16.74h3.36v16.74h-3.36Z"/>
      <path class="uuid-f96c7292-2878-477f-99f3-a1ea763d9e58" d="m399.75,708.13v-13.78h-6.16v-2.97h11.76v2.97h-2.24v13.78h-3.36Z"/>
      <path class="uuid-f96c7292-2878-477f-99f3-a1ea763d9e58" d="m406.02,708.38v-3.28c1.14-.54,2.06-1.28,2.77-2.21.82-1.1,1.23-2.41,1.23-3.92v-2.77c0-.62-.1-1.08-.29-1.39-.2-.31-.54-.46-1.02-.46h-1.43v-2.97h2.55c1.21,0,2.1.36,2.67,1.09.57.73.85,1.84.85,3.33v6.92l.64,5.4h-2.91l-.64-3.84h-.08c-.43.86-1.04,1.68-1.83,2.45-.79.77-1.63,1.32-2.51,1.64Z"/>
      <path class="uuid-f96c7292-2878-477f-99f3-a1ea763d9e58" d="m421.96,708.13v-4.42c0-1.59.23-2.94.69-4.07.46-1.13,1.14-1.97,2.06-2.53l-3.11-5.71h3.7l4.14,7.95c.35-.41.6-.94.73-1.58s.2-1.44.2-2.39v-3.98h3.33v3.98c0,1.61-.24,2.97-.71,4.1-.48,1.13-1.18,1.97-2.11,2.53l3.36,6.13h-3.7l-4.37-8.32c-.32.41-.54.93-.67,1.55-.13.62-.2,1.4-.2,2.34v4.42h-3.33Z"/>
      <path class="uuid-f96c7292-2878-477f-99f3-a1ea763d9e58" d="m437.02,708.13v-16.74h3.36v16.74h-3.36Z"/>
      <path class="uuid-f96c7292-2878-477f-99f3-a1ea763d9e58" d="m452.59,708.13v-10.86c0-1.01-.18-1.75-.55-2.21-.36-.47-.9-.7-1.61-.7h-6.24v-2.97h6.83c3.29,0,4.93,1.81,4.93,5.43v11.31h-3.36Zm-8.4,0v-9.86h3.36v9.86h-3.36Z"/>
      <path class="uuid-f96c7292-2878-477f-99f3-a1ea763d9e58" d="m459.87,708.13l-1.51-16.74h3.33l.7,7.7.06-.03c.5-.17.89-.39,1.16-.67s.47-.68.6-1.2c.13-.52.23-1.24.31-2.16l.31-3.64h3.36l-.34,3.92c-.11,1.27-.32,2.32-.63,3.15-.31.83-.79,1.51-1.46,2.04-.66.53-1.58.98-2.76,1.36l-.34.11.28,3.16h1.23c1.44,0,2.56-.24,3.36-.73s1.4-1.26,1.78-2.34c.38-1.07.65-2.49.8-4.24l.5-6.44h3.36l-.53,6.83c-.11,1.38-.34,2.67-.67,3.88-.34,1.2-.84,2.26-1.51,3.16s-1.55,1.61-2.65,2.11-2.45.76-4.07.76h-4.68Z"/>
      <path class="uuid-f96c7292-2878-477f-99f3-a1ea763d9e58" d="m483.92,691.39h7.78v2.27l-4.51,14.48h-3.42l4.34-13.78h-7.56v-7.5h3.36v4.54Z"/>
      <path class="uuid-f96c7292-2878-477f-99f3-a1ea763d9e58" d="m498.73,708.13v-13.78h-6.16v-2.97h11.76v2.97h-2.24v13.78h-3.36Z"/>
      <path class="uuid-f96c7292-2878-477f-99f3-a1ea763d9e58" d="m506.6,708.13v-16.74h3.36v16.74h-3.36Z"/>
      <path class="uuid-f96c7292-2878-477f-99f3-a1ea763d9e58" d="m512.17,708.38v-3.28c1.14-.54,2.06-1.28,2.77-2.21.82-1.1,1.23-2.41,1.23-3.92v-2.77c0-.62-.1-1.08-.29-1.39-.2-.31-.54-.46-1.02-.46h-1.43v-2.97h2.55c1.21,0,2.1.36,2.67,1.09.57.73.85,1.84.85,3.33v6.92l.64,5.4h-2.91l-.64-3.84h-.08c-.43.86-1.04,1.68-1.83,2.45-.79.77-1.63,1.32-2.51,1.64Z"/>
      <path class="uuid-f96c7292-2878-477f-99f3-a1ea763d9e58" d="m521.67,708.13v-3h6.58v-7.84c0-1.06-.19-1.82-.56-2.27-.37-.45-.92-.67-1.65-.67h-4.37v-2.97h5.01c1.6,0,2.83.45,3.67,1.34.84.9,1.26,2.27,1.26,4.12v8.29h1.96v3h-11.9Z"/>
      <path class="uuid-f96c7292-2878-477f-99f3-a1ea763d9e58" d="m540.57,708.13v-3h.95c.84,0,1.26-.62,1.26-1.88v-8.9h-2.16v-2.97h8.6c3.29,0,4.93,1.81,4.93,5.43v11.31h-3.36v-10.86c0-1.01-.18-1.75-.53-2.21-.35-.47-.9-.7-1.62-.7h-2.49v9.07c0,1.59-.29,2.77-.88,3.54-.59.78-1.53,1.16-2.81,1.16h-1.88Z"/>
      <path class="uuid-f96c7292-2878-477f-99f3-a1ea763d9e58" d="m557.81,708.13v-16.74h3.36v16.74h-3.36Z"/>
      <path class="uuid-f96c7292-2878-477f-99f3-a1ea763d9e58" d="m569.52,708.13v-13.78h-6.16v-2.97h11.76v2.97h-2.24v13.78h-3.36Z"/>
      <path class="uuid-f96c7292-2878-477f-99f3-a1ea763d9e58" d="m577.39,708.13v-16.74h3.36v16.74h-3.36Z"/>
      <path class="uuid-f96c7292-2878-477f-99f3-a1ea763d9e58" d="m583.21,708.13v-3h6.58v-7.84c0-1.06-.19-1.82-.56-2.27-.37-.45-.92-.67-1.65-.67h-4.37v-2.97h5.01c1.6,0,2.83.45,3.67,1.34.84.9,1.26,2.27,1.26,4.12v8.29h1.96v3h-11.9Z"/>
      <path class="uuid-f96c7292-2878-477f-99f3-a1ea763d9e58" d="m595.87,708.13v-3h3.22l-2.13-13.75h3.36l2.02,13.38c1.06-.37,1.79-1.12,2.17-2.23.38-1.11.66-2.68.83-4.72l.53-6.44h3.36l-.53,6.83c-.09,1.29-.27,2.53-.52,3.71-.25,1.19-.67,2.25-1.26,3.18-.59.93-1.42,1.67-2.51,2.21-1.08.54-2.49.81-4.23.81h-4.31Z"/>
    </g>
    <g>
      <path class="uuid-c45bf56c-652e-408e-b9c5-fada1fd4c81a" d="m241.62,857.54v-22.12c0-.73-.12-1.28-.35-1.64s-.64-.55-1.21-.55h-1.1v-3.52h2.42c2.83,0,4.25,1.75,4.25,5.25v22.59h-4.02Z"/>
      <path class="uuid-c45bf56c-652e-408e-b9c5-fada1fd4c81a" d="m249.62,842.49v-12.79h4.05v9.2l-2.03,3.59h-2.03Z"/>
      <path class="uuid-c45bf56c-652e-408e-b9c5-fada1fd4c81a" d="m257.33,842.49v-12.79h4.05v9.2l-2.03,3.59h-2.03Z"/>
      <path class="uuid-c45bf56c-652e-408e-b9c5-fada1fd4c81a" d="m272.6,849.97c-1.86,0-3.38-.46-4.55-1.39-1.17-.93-2.03-2.18-2.57-3.75-.54-1.57-.81-3.32-.81-5.25v-9.87h4.02v9.9c0,2.39.32,4.15.96,5.26.64,1.12,1.63,1.68,2.96,1.68,1.51,0,2.52-.65,3.04-1.94.52-1.29.78-3.13.78-5.5,0-2.01-.16-3.58-.48-4.68-.32-1.11-.99-1.66-2.01-1.66-.33,0-.71.04-1.15.13-.43.09-.83.22-1.18.4v-3.42c.35-.11.8-.23,1.35-.37.54-.13,1.13-.2,1.78-.2,1.42,0,2.55.38,3.39,1.13.84.75,1.44,1.83,1.79,3.24.35,1.41.53,3.08.53,5.03,0,3.68-.65,6.47-1.96,8.39-1.31,1.92-3.27,2.87-5.88,2.87Z"/>
      <path class="uuid-c45bf56c-652e-408e-b9c5-fada1fd4c81a" d="m284.13,849.57l-1.79-19.86h3.95l.83,9.13.07-.03c.6-.2,1.06-.46,1.38-.8.32-.33.56-.81.71-1.43.15-.62.28-1.47.37-2.56l.37-4.32h3.99l-.4,4.65c-.13,1.51-.38,2.75-.75,3.74-.37.99-.94,1.79-1.73,2.42s-1.88,1.17-3.27,1.61l-.4.13.33,3.75h1.46c1.71,0,3.03-.29,3.99-.86.95-.58,1.65-1.5,2.11-2.77.45-1.27.77-2.95.95-5.03l.6-7.64h3.99l-.63,8.1c-.13,1.64-.4,3.17-.8,4.6-.4,1.43-1,2.68-1.79,3.75-.8,1.07-1.84,1.91-3.14,2.51-1.3.6-2.91.9-4.83.9h-5.55Z"/>
      <path class="uuid-c45bf56c-652e-408e-b9c5-fada1fd4c81a" d="m301.77,849.87v-3.89c1.35-.64,2.45-1.52,3.29-2.62.97-1.31,1.46-2.86,1.46-4.65v-3.29c0-.73-.12-1.28-.35-1.64s-.64-.55-1.21-.55h-1.69v-3.52h3.02c1.44,0,2.5.43,3.17,1.3.68.86,1.01,2.18,1.01,3.95v8.2l.76,6.41h-3.45l-.76-4.55h-.1c-.51,1.02-1.23,1.99-2.18,2.91-.94.92-1.93,1.57-2.97,1.94Z"/>
      <path class="uuid-c45bf56c-652e-408e-b9c5-fada1fd4c81a" d="m313.26,849.57v-3.55h4.62v-10.6c0-.73-.12-1.28-.35-1.64-.23-.37-.64-.55-1.21-.55h-1.73v-3.52h3.06c2.81,0,4.22,1.75,4.22,5.25v14.61h-8.6Z"/>
      <path class="uuid-c45bf56c-652e-408e-b9c5-fada1fd4c81a" d="m325.88,842.49v-12.79h4.05v9.2l-2.03,3.59h-2.03Z"/>
      <path class="uuid-c45bf56c-652e-408e-b9c5-fada1fd4c81a" d="m336.11,829.71h9.23v2.69l-5.35,17.17h-4.05l5.15-16.34h-8.97v-8.9h3.99v5.38Z"/>
      <path class="uuid-c45bf56c-652e-408e-b9c5-fada1fd4c81a" d="m348.3,849.57v-19.86h3.99v19.86h-3.99Z"/>
      <path class="uuid-c45bf56c-652e-408e-b9c5-fada1fd4c81a" d="m363.11,849.57v-19.86h8.47c3.92,0,5.88,2.15,5.88,6.44v13.42h-14.35Zm3.99-3.55h6.38v-9.33c0-1.2-.22-2.07-.65-2.62-.43-.55-1.08-.83-1.94-.83h-3.79v12.79Z"/>
      <path class="uuid-c45bf56c-652e-408e-b9c5-fada1fd4c81a" d="m387.19,849.57v-16.34h-7.31v-3.52h13.95v3.52h-2.66v16.34h-3.99Z"/>
      <path class="uuid-c45bf56c-652e-408e-b9c5-fada1fd4c81a" d="m395.76,849.57v-5.25c0-1.88.27-3.49.81-4.83.54-1.34,1.36-2.34,2.44-3.01l-3.69-6.78h4.38l4.92,9.43c.42-.49.71-1.11.86-1.88.15-.76.23-1.71.23-2.84v-4.72h3.95v4.72c0,1.9-.28,3.53-.85,4.87s-1.4,2.34-2.51,3.01l3.99,7.27h-4.38l-5.18-9.86c-.38.49-.64,1.1-.8,1.84-.16.74-.23,1.67-.23,2.77v5.25h-3.95Z"/>
      <path class="uuid-c45bf56c-652e-408e-b9c5-fada1fd4c81a" d="m413.63,849.57v-19.86h3.99v19.86h-3.99Z"/>
      <path class="uuid-c45bf56c-652e-408e-b9c5-fada1fd4c81a" d="m428.61,842.49v-12.79h4.05v9.2l-2.03,3.59h-2.03Z"/>
      <path class="uuid-c45bf56c-652e-408e-b9c5-fada1fd4c81a" d="m438.84,829.71h9.23v2.69l-5.35,17.17h-4.05l5.15-16.34h-8.97v-8.9h3.99v5.38Z"/>
      <path class="uuid-c45bf56c-652e-408e-b9c5-fada1fd4c81a" d="m449.93,849.57v-3.55h1.13c1,0,1.49-.74,1.49-2.23v-10.56h-2.56v-3.52h10.2c3.9,0,5.85,2.15,5.85,6.44v13.42h-3.99v-12.89c0-1.2-.21-2.07-.63-2.62s-1.06-.83-1.93-.83h-2.96v10.76c0,1.88-.35,3.28-1.05,4.2-.7.92-1.81,1.38-3.34,1.38h-2.23Z"/>
      <path class="uuid-c45bf56c-652e-408e-b9c5-fada1fd4c81a" d="m469.63,849.57v-3.55h6.74c1.24,0,2.18-.51,2.82-1.54.64-1.03.96-2.63.96-4.8s-.33-3.81-1-4.87-1.67-1.58-3.02-1.58h-2.72v1.89c0,1.31.13,2.2.38,2.69.25.49.69.73,1.31.73.13,0,.27,0,.42-.02.14-.01.27-.02.38-.02v3.52c-.44.07-.92.1-1.43.1-1.9,0-3.22-.56-3.94-1.69-.72-1.13-1.08-2.81-1.08-5.05v-5.68h6.88c2.46,0,4.39.86,5.81,2.57,1.42,1.72,2.12,4.16,2.12,7.32,0,1.93-.28,3.64-.85,5.13-.56,1.5-1.43,2.67-2.59,3.54-1.16.86-2.62,1.29-4.37,1.29h-6.84Z"/>
      <path class="uuid-c45bf56c-652e-408e-b9c5-fada1fd4c81a" d="m486.24,849.57v-3.55h4.62v-10.6c0-.73-.12-1.28-.35-1.64s-.64-.55-1.21-.55h-1.73v-3.52h3.06c2.81,0,4.22,1.75,4.22,5.25v14.61h-8.6Z"/>
      <path class="uuid-c45bf56c-652e-408e-b9c5-fada1fd4c81a" d="m515.96,849.57v-12.89c0-1.2-.22-2.07-.65-2.62s-1.07-.83-1.91-.83h-7.41v-3.52h8.1c3.9,0,5.84,2.15,5.84,6.44v13.42h-3.99Zm-9.96,0v-11.69h3.99v11.69h-3.99Z"/>
      <path class="uuid-c45bf56c-652e-408e-b9c5-fada1fd4c81a" d="m522.41,849.87v-3.89c1.35-.64,2.45-1.52,3.29-2.62.97-1.31,1.46-2.86,1.46-4.65v-3.29c0-.73-.12-1.28-.35-1.64s-.64-.55-1.21-.55h-1.69v-3.52h3.02c1.44,0,2.5.43,3.17,1.3.67.86,1.01,2.18,1.01,3.95v8.2l.76,6.41h-3.45l-.76-4.55h-.1c-.51,1.02-1.23,1.99-2.18,2.91-.94.92-1.93,1.57-2.97,1.94Z"/>
      <path class="uuid-c45bf56c-652e-408e-b9c5-fada1fd4c81a" d="m533.9,849.57v-3.55h4.62v-10.6c0-.73-.12-1.28-.35-1.64s-.64-.55-1.21-.55h-1.73v-3.52h3.06c2.81,0,4.22,1.75,4.22,5.25v14.61h-8.6Z"/>
      <path class="uuid-c45bf56c-652e-408e-b9c5-fada1fd4c81a" d="m552.37,842.43v-3.55h8.07v3.55h-8.07Z"/>
      <path class="uuid-c45bf56c-652e-408e-b9c5-fada1fd4c81a" d="m573.66,849.57v-12.89c0-1.2-.22-2.07-.65-2.62s-1.07-.83-1.91-.83h-7.41v-3.52h8.1c3.9,0,5.84,2.15,5.84,6.44v13.42h-3.99Zm-9.96,0v-11.69h3.99v11.69h-3.99Z"/>
      <path class="uuid-c45bf56c-652e-408e-b9c5-fada1fd4c81a" d="m580.4,849.57v-3.55h4.92c1.28,0,2.26-.51,2.92-1.54.66-1.03,1-2.64,1-4.83s-.34-3.78-1.03-4.83c-.69-1.05-1.68-1.58-2.99-1.58h-4.82v-3.52h5.02c2.46,0,4.4.86,5.81,2.57,1.42,1.72,2.13,4.16,2.13,7.32,0,1.95-.28,3.67-.85,5.16-.56,1.5-1.43,2.67-2.59,3.52-1.16.85-2.64,1.28-4.43,1.28h-5.08Z"/>
      <path class="uuid-c45bf56c-652e-408e-b9c5-fada1fd4c81a" d="m596.94,849.57v-19.86h3.99v19.86h-3.99Z"/>
      <path class="uuid-c45bf56c-652e-408e-b9c5-fada1fd4c81a" d="m612.75,849.57v-12.89c0-1.2-.21-2.07-.63-2.62-.42-.55-1.06-.83-1.93-.83h-6.64v-3.52h7.34c3.9,0,5.85,2.15,5.85,6.44v13.42h-3.99Z"/>
      <path class="uuid-c45bf56c-652e-408e-b9c5-fada1fd4c81a" d="m619.39,849.57v-3.55h3.82l-2.52-16.31h3.99l2.39,15.88c1.26-.44,2.12-1.32,2.57-2.64.45-1.32.78-3.18.98-5.6l.63-7.64h3.99l-.63,8.1c-.11,1.53-.32,3-.61,4.4s-.8,2.66-1.49,3.77c-.7,1.11-1.69,1.98-2.97,2.62-1.29.64-2.96.96-5.02.96h-5.12Z"/>
      <path class="uuid-c45bf56c-652e-408e-b9c5-fada1fd4c81a" d="m637.06,849.57v-3.55h1.13c1,0,1.49-.74,1.49-2.23v-10.56h-2.56v-3.52h10.2c3.9,0,5.85,2.15,5.85,6.44v13.42h-3.99v-12.89c0-1.2-.21-2.07-.63-2.62s-1.06-.83-1.93-.83h-2.96v10.76c0,1.88-.35,3.28-1.05,4.2-.7.92-1.81,1.38-3.34,1.38h-2.23Z"/>
      <path class="uuid-c45bf56c-652e-408e-b9c5-fada1fd4c81a" d="m667.49,849.57v-12.89c0-1.2-.22-2.07-.65-2.62s-1.07-.83-1.91-.83h-7.41v-3.52h8.1c3.9,0,5.84,2.15,5.84,6.44v13.42h-3.99Zm-9.96,0v-11.69h3.99v11.69h-3.99Z"/>
      <path class="uuid-c45bf56c-652e-408e-b9c5-fada1fd4c81a" d="m682.3,842.49v-12.79h4.05v9.2l-2.03,3.59h-2.03Z"/>
      <path class="uuid-c45bf56c-652e-408e-b9c5-fada1fd4c81a" d="m697.65,849.57v-12.89c0-1.2-.21-2.07-.63-2.62-.42-.55-1.06-.83-1.93-.83h-6.64v-3.52h7.34c3.9,0,5.85,2.15,5.85,6.44v13.42h-3.99Z"/>
      <path class="uuid-c45bf56c-652e-408e-b9c5-fada1fd4c81a" d="m704.79,849.57v-3.55h8.37l-8.47-16.31h4.35l4.45,8.87c.42-.46.71-1.07.86-1.83.15-.75.23-1.74.23-2.96v-4.09h3.95v4.09c0,1.97-.3,3.63-.9,4.96-.6,1.34-1.45,2.33-2.56,2.97l2.59,5.05v2.79h-12.89Z"/>
      <path class="uuid-c45bf56c-652e-408e-b9c5-fada1fd4c81a" d="m721.89,849.57v-19.86h3.99v19.86h-3.99Z"/>
      <path class="uuid-c45bf56c-652e-408e-b9c5-fada1fd4c81a" d="m729.63,849.57v-5.25c0-1.88.27-3.49.81-4.83.54-1.34,1.36-2.34,2.44-3.01l-3.69-6.78h4.38l4.92,9.43c.42-.49.71-1.11.86-1.88.15-.76.23-1.71.23-2.84v-4.72h3.95v4.72c0,1.9-.28,3.53-.85,4.87s-1.4,2.34-2.51,3.01l3.99,7.27h-4.38l-5.18-9.86c-.38.49-.64,1.1-.8,1.84-.16.74-.23,1.67-.23,2.77v5.25h-3.95Z"/>
    </g>
  </g>
  <g id="uuid-552a93fa-a1dc-48c2-a39c-4d6089f4b240" data-name="Layer 2 copy">
    <path class="uuid-16505af2-db82-4b6e-8562-472180288bfd" d="m222.54,465.81v-39.21h11.61c1.62,0,2.89-.54,3.81-1.61.92-1.07,1.39-3.02,1.39-5.83v-65.26h-16.81v-39.21h68.96c29.11,0,43.67,18.78,43.67,56.33v94.79h-47.16v-94.05c0-5.96-1.07-10.42-3.21-13.4-2.14-2.98-5.05-4.47-8.75-4.47h-3.44v62.78c0,32.76-10.46,49.13-31.36,49.13h-18.71Z"/>
    <path class="uuid-16505af2-db82-4b6e-8562-472180288bfd" d="m339.47,465.81v-151.12h52.92v151.12h-52.92Z"/>
    <path class="uuid-16505af2-db82-4b6e-8562-472180288bfd" d="m449.9,465.81v-83.02h-55.34v-68.11h106.36v68.11h-11.59v83.02h-39.43Z"/>
    <path class="uuid-16505af2-db82-4b6e-8562-472180288bfd" d="m505.01,465.81v-151.12h48.58v151.12h-48.58Z"/>
    <path class="uuid-16505af2-db82-4b6e-8562-472180288bfd" d="m556.24,465.81v-58.47h38.24v-35.57c0-5.96-1.11-10.42-3.34-13.4-2.22-2.98-5.26-4.47-9.1-4.47h-25.8v-39.21h46.69c30.29,0,45.43,18.78,45.43,56.33v36.32h14.06v58.47h-106.18Z"/>
    <path class="uuid-16505af2-db82-4b6e-8562-472180288bfd" d="m666.93,465.81v-57.23h23.86s-17.55-93.9-17.55-93.9h58.7l7.82,89.95c5.89-3.31-3.49,8.69,0,0,3.48-8.69,5.89-21.13,7.21-37.35l4.15-52.61h34.61l-4.33,54.35c-.6,7.78-1.65,16.05-3.15,24.82-1.5,8.77-3.79,17.41-6.85,25.93-3.06,8.52-7.27,16.25-12.62,23.2-5.35,6.95-12.11,12.49-20.28,16.63-8.17,4.14-18.09,6.2-29.74,6.2h-41.82Z"/>
    <path class="uuid-16505af2-db82-4b6e-8562-472180288bfd" d="m229.43,615.82v-37.79h6.84c1.82,0,3.26-.52,4.3-1.55,1.04-1.04,1.56-2.91,1.56-5.62v-62.91h-12.7v-37.79h77.82c32.85,0,49.27,18.1,49.27,54.29v91.37h-51.99v-90.65c0-5.74-1.21-10.05-3.62-12.92-2.41-2.87-5.7-4.31-9.87-4.31h-5.1v60.51c0,31.57-11.8,47.36-35.39,47.36h-21.12Z"/>
    <path class="uuid-16505af2-db82-4b6e-8562-472180288bfd" d="m358.96,615.82v-145.66h47.17v145.66h-47.17Z"/>
    <path class="uuid-16505af2-db82-4b6e-8562-472180288bfd" d="m445.92,470.16h72.35v26.31l-38.91,119.35h-39.3l25.73-75.49-57.4.37v-106.66h37.54v36.12Z"/>
    <path class="uuid-16505af2-db82-4b6e-8562-472180288bfd" d="m521.47,615.82v-145.66h47.18v145.66h-47.18Z"/>
    <path class="uuid-16505af2-db82-4b6e-8562-472180288bfd" d="m630.91,615.82v-74.15h-60.03v-71.51h115.36v71.51h-17.79v74.15h-37.54Z"/>
    <path class="uuid-16505af2-db82-4b6e-8562-472180288bfd" d="m682.54,618.22v-38.75c5.34-.64,10.17-2.07,14.47-4.31,4.3-2.23,8.15-5.02,11.54-8.37,3.65-3.67,6.48-7.93,8.51-12.8,2.02-4.86,3.03-10.08,3.03-15.67v11.95c0-2.87-.49-4.98-1.47-6.34-.98-1.35-2.71-2.03-5.18-2.03h-23.46v-71.75h33.83c11.47,0,19.97,3.83,25.52,11.48,5.54,7.65,8.31,17.78,8.31,30.38v56.21l5.08,47.6h-32.26l-7.04-27.51h-.98c-5.61,7.65-11.83,14.07-18.67,19.25-6.84,5.18-13.92,8.73-21.21,10.64Z"/>
    <circle class="uuid-f96c7292-2878-477f-99f3-a1ea763d9e58" cx="368.6" cy="282.79" r="24.76"/>
    <circle class="uuid-f96c7292-2878-477f-99f3-a1ea763d9e58" cx="529.3" cy="282.79" r="24.76"/>
    <circle class="uuid-ed00056c-0f00-407b-b8b7-d239fe35ba1e" cx="545.06" cy="443.94" r="24.76"/>
    <circle class="uuid-ed00056c-0f00-407b-b8b7-d239fe35ba1e" cx="382.55" cy="445.41" r="24.76"/>
  </g>
</svg>