<svg width="28" height="43" viewBox="0 0 28 43" fill="none" xmlns="http://www.w3.org/2000/svg">
<path d="M0.0434577 2.81138L4.68198 0.00543675L5.64737 1.64882C5.88583 2.05576 5.93936 2.4351 5.80797 2.79077C5.67657 3.14644 5.37181 3.46671 4.90141 3.7516L1.72808 5.67166L0.0473151 2.80747L0.0434577 2.81138ZM1.22989 3.15686L1.98759 4.44419L4.31649 3.03536C4.88714 2.69194 5.05709 2.32067 4.82632 1.92548L4.41863 1.229L1.22989 3.15686Z" fill="#EE3B23"/>
<path d="M2.90114 7.67512L6.81473 5.31025L5.95701 3.84685L6.68189 3.40978L8.33963 6.23095L7.61475 6.66802L7.27629 6.08892L3.3627 8.45379L2.90115 7.67121L2.90114 7.67512Z" fill="#EE3B23"/>
<path d="M3.92022 9.40861L5.14249 8.66714C5.99461 8.15202 6.72301 8.02386 7.32769 8.28656L8.51636 6.53624L9.00869 7.37359L7.36854 9.72553C7.54963 9.7453 7.73846 9.71815 7.94276 9.65192C8.1432 9.58178 8.37451 9.47257 8.629 9.31647L9.75102 8.63745L10.2126 9.42002L9.10598 10.0873C8.24229 10.6103 7.50234 10.7267 6.88227 10.4366L5.61642 12.2963L5.1241 11.4589L6.81828 9.02105C6.64874 9.02085 6.46375 9.048 6.26716 9.11815C6.07057 9.18439 5.85467 9.29361 5.61562 9.438L4.37792 10.1873L3.91637 9.4047L3.92022 9.40861Z" fill="#EE3B23"/>
<path d="M6.05089 13.0359L10.6893 10.2301L11.1509 11.0127L6.51245 13.8185L6.05089 13.0359Z" fill="#EE3B23"/>
<path d="M7.95446 16.2799L10.7036 14.6174L11.1652 15.4L8.41601 17.0625L7.95446 16.2799ZM9.12373 18.2715L12.1775 16.4218C12.7481 16.0784 12.9181 15.7071 12.6873 15.3119L11.8642 13.9111L12.5891 13.474L13.5083 15.0392C13.743 15.4383 13.7965 15.8176 13.6651 16.1772C13.5337 16.5368 13.2328 16.8571 12.7586 17.1419L9.58527 19.0619L9.11987 18.2715L9.12373 18.2715Z" fill="#EE3B23"/>
<path d="M9.8388 19.6447L10.6562 19.1491C11.0144 19.3255 11.3572 19.4237 11.6886 19.4358C11.9236 19.4439 12.1548 19.409 12.3823 19.3311C12.6097 19.2531 12.8372 19.1478 13.0724 19.0034L13.7972 18.5664C13.9939 18.4454 14.1289 18.3322 14.1945 18.2189C14.264 18.1055 14.2525 17.9765 14.1679 17.8278L14.0487 17.6243L14.7736 17.1873L15.062 17.6764C15.2467 17.9855 15.2772 18.271 15.1652 18.525C15.0493 18.779 14.7947 19.029 14.3937 19.2709L12.408 20.4728L11.039 21.5269L10.6544 20.8696L11.6302 20.0105L11.6225 19.9949C11.318 20.0493 10.9982 20.045 10.663 19.9781C10.3279 19.9112 10.0544 19.8014 9.84266 19.6448L9.8388 19.6447Z" fill="#EE3B23"/>
<path d="M11.3504 22.063L12.0752 21.6259L12.6099 22.5337L15.2048 20.9649C15.4014 20.844 15.5364 20.7307 15.602 20.6174C15.6715 20.5041 15.6601 20.3751 15.5755 20.2264L15.4562 20.019L16.1811 19.5819L16.4696 20.071C16.6504 20.3762 16.6847 20.6578 16.5727 20.9196C16.4607 21.1815 16.2061 21.4314 15.8051 21.6734L12.3543 23.7612L11.3542 22.063L11.3504 22.063Z" fill="#EE3B23"/>
<path d="M13.6963 26.0543L18.3348 23.2484L19.3002 24.8919C19.5386 25.2988 19.5922 25.6781 19.4569 26.0338C19.3217 26.3895 19.0208 26.7097 18.5504 26.9946L15.3771 28.9146L13.6963 26.0504L13.6963 26.0543ZM14.8827 26.3998L15.6404 27.6871L17.9693 26.2784C18.54 25.931 18.7099 25.5637 18.4791 25.1685L18.0714 24.472L14.8827 26.3998Z" fill="#EE3B23"/>
<path d="M17.4196 28.5613L20.3962 26.7623L20.8731 27.5762L18.6677 28.9108L17.6581 28.9761L17.4157 28.5652L17.4196 28.5613Z" fill="#EE3B23"/>
<path d="M17.5538 32.6203L20.6076 30.7705C21.1782 30.4232 21.3482 30.0559 21.1174 29.6607L20.425 28.4829L21.1499 28.0458L21.9384 29.3918C22.1769 29.7988 22.2304 30.1781 22.0952 30.5338C21.9638 30.8894 21.659 31.2097 21.1886 31.4946L18.0153 33.4146L17.5499 32.6242L17.5538 32.6203Z" fill="#EE3B23"/>
<path d="M18.4382 34.1228L19.1631 33.6858L20.1401 35.3487L23.1036 31.3679L23.5805 32.1817L21.9946 34.2678C22.3106 34.2917 22.7192 34.1514 23.2165 33.8509L24.2075 33.2539L24.669 34.0364L23.6935 34.6257C22.826 35.1525 22.0822 35.265 21.466 34.9671L20.482 36.2797L19.9036 36.627L18.4344 34.1267L18.4382 34.1228Z" fill="#EE3B23"/>
<path d="M20.4574 37.5623L25.0958 34.7565L25.5574 35.5391L20.9189 38.3449L20.4574 37.5623Z" fill="#EE3B23"/>
<path d="M21.388 39.1431L22.6103 38.4016C23.4624 37.8865 24.1908 37.7584 24.7955 38.0211L25.9841 36.2707L26.4765 37.1081L24.8363 39.46C25.0174 39.4798 25.2062 39.4526 25.4105 39.3864C25.611 39.3163 25.8423 39.2071 26.0968 39.051L27.2188 38.3719L27.6803 39.1545L26.5737 39.8257C25.7101 40.3487 24.9701 40.4651 24.35 40.175L23.0842 42.0347L22.5919 41.1974L24.286 38.7595C24.1165 38.7593 23.9315 38.7864 23.7349 38.8566C23.5383 38.9228 23.3224 39.032 23.0834 39.1764L21.8457 39.9257L21.3841 39.1431L21.388 39.1431Z" fill="#EE3B23"/>
</svg>
