<svg width="123" height="6" viewBox="0 0 123 6" fill="none" xmlns="http://www.w3.org/2000/svg">
<path d="M2.74103 5.55733L2.74415 2.02252C2.74444 1.69379 2.68653 1.45392 2.56654 1.30291C2.44655 1.1519 2.27225 1.07429 2.04363 1.07394L0.00543318 1.07086L0.00628662 0.104004L2.23436 0.107378C3.30383 0.108998 3.83805 0.697654 3.837 1.87721L3.83376 5.55512L2.73716 5.55346L2.74103 5.55733ZM0.00535151 5.55319L0.00818153 2.34711L1.10478 2.34877L1.10195 5.55485L0.00147661 5.55319L0.00535151 5.55319Z" fill="#EE3B23"/>
<path d="M5.1108 5.5586L4.62354 0.113037L5.70841 0.11468L5.9348 2.61701L5.95418 2.60931C6.11696 2.55542 6.24489 2.48214 6.33408 2.39333C6.42328 2.30452 6.48926 2.17314 6.53203 2.00305C6.5748 1.83297 6.60987 1.601 6.63339 1.30327L6.73517 0.120102L7.83167 0.121763L7.72206 1.39773C7.68682 1.81145 7.61678 2.15165 7.5158 2.42219C7.41482 2.69273 7.25577 2.91291 7.04252 3.08661C6.82539 3.26029 6.52692 3.40679 6.14323 3.52609L6.03471 3.56073L6.12679 4.58951L6.52975 4.59012C6.99857 4.59083 7.36285 4.51404 7.62646 4.35589C7.88619 4.19773 8.08014 3.94667 8.20831 3.59496C8.33261 3.24711 8.41825 2.78706 8.46913 2.21481L8.63371 0.119111L9.73021 0.120771L9.55389 2.34407C9.51862 2.79259 9.44464 3.21399 9.3358 3.6044C9.22697 3.99481 9.06006 4.33872 8.84283 4.63229C8.62172 4.92585 8.3348 5.15357 7.97819 5.31932C7.62158 5.48506 7.17981 5.5656 6.649 5.5648L5.12629 5.56249L5.1108 5.5586Z" fill="#EE3B23"/>
<path d="M12.4791 5.56833L12.4822 2.03346C12.4825 1.70473 12.4246 1.46486 12.3085 1.31385C12.1924 1.16284 12.0181 1.08523 11.7778 1.08487L9.9527 1.0821L9.95355 0.115234L11.9685 0.118286C13.038 0.119906 13.5723 0.708571 13.5712 1.88815L13.568 5.56611L12.4714 5.56445L12.4791 5.56833Z" fill="#EE3B23"/>
<path d="M16.2478 5.57213L16.2518 1.09367L14.2446 1.09063L14.2454 0.123779L18.0777 0.129583L18.0768 1.09644L17.3484 1.09533L17.3444 5.57379L16.2478 5.57213Z" fill="#EE3B23"/>
<path d="M21.2575 0.032102C21.6101 0.0326361 21.8929 0.118146 22.102 0.288627C22.3111 0.459108 22.462 0.695245 22.5547 0.993173C22.6475 1.29497 22.6898 1.64696 22.6894 2.05303L22.6863 5.5762L20.6055 5.57305L20.6064 4.59847L21.5906 4.59996L21.5927 2.179C21.5931 1.78453 21.543 1.4944 21.4424 1.30861C21.3418 1.12283 21.1714 1.02975 20.9273 1.02938C20.6676 1.02899 20.4622 1.15243 20.3186 1.40359C20.175 1.65089 20.07 2.09548 20.0035 2.73349L19.691 5.57553L18.5945 5.57387L18.989 1.93141L18.5993 0.128627L19.6959 0.130288L19.8501 0.931066L19.8966 0.931137C20.0247 0.683819 20.1877 0.471361 20.3893 0.293768C20.591 0.116174 20.8778 0.0315269 21.2575 0.032102Z" fill="#EE3B23"/>
<path d="M23.4403 5.57958L23.4412 4.60499L25.584 4.60824L25.5862 2.05962C25.5865 1.71543 25.5247 1.46782 25.4047 1.32068C25.2848 1.17353 25.1027 1.10364 24.8663 1.10329L23.4442 1.10113L23.4451 0.134283L25.0764 0.136754C25.5995 0.137546 25.9985 0.285112 26.2695 0.575577C26.5444 0.866049 26.6796 1.31487 26.6791 1.91432L26.6767 4.60989L27.316 4.61086L27.3152 5.58545L23.4364 5.57957L23.4403 5.57958Z" fill="#EE3B23"/>
<path d="M41.9839 5.60152L41.987 2.0667C41.9873 1.73797 41.9294 1.49811 41.8094 1.3471C41.6894 1.19609 41.5151 1.11847 41.2865 1.11813L39.2522 1.11505L39.2531 0.148193L41.4811 0.151568C42.5506 0.153188 43.0848 0.741844 43.0838 1.9214L43.0805 5.59931L41.9839 5.59765L41.9839 5.60152ZM39.2482 5.59738L39.2511 2.39129L40.3477 2.39295L40.3448 5.59904L39.2482 5.59738Z" fill="#EE3B23"/>
<path d="M43.8965 5.60307L43.8974 4.62838L45.1647 4.6303L45.1673 1.72557C45.1675 1.52445 45.1366 1.37355 45.0708 1.27289C45.005 1.17223 44.8965 1.12178 44.7376 1.12154L44.2648 1.12083L44.2656 0.153872L45.1067 0.155146C45.8779 0.156314 46.2651 0.63651 46.2642 1.59573L46.2607 5.60279L43.8965 5.59921L43.8965 5.60307Z" fill="#EE3B23"/>
<path d="M47.5377 5.60645L47.0505 0.160889L48.1354 0.162532L48.3617 2.66486L48.3811 2.65716C48.5439 2.60327 48.6718 2.52999 48.761 2.44118C48.8502 2.35237 48.9162 2.22099 48.959 2.05091C49.0017 1.88082 49.0368 1.64885 49.0603 1.35112L49.1621 0.167954L50.2586 0.169615L50.149 1.44558C50.1138 1.8593 50.0437 2.1995 49.9427 2.47004C49.8418 2.74058 49.6827 2.96076 49.4695 3.13446C49.2523 3.30815 48.9539 3.45464 48.5702 3.57394L48.4616 3.60858L48.5537 4.63736L48.9567 4.63797C49.4255 4.63868 49.7898 4.56189 50.0534 4.40374C50.3131 4.24558 50.5071 3.99452 50.6353 3.64281C50.7595 3.29496 50.8452 2.83491 50.8961 2.26266L51.0606 0.166962L52.1571 0.168623L51.9808 2.39192C51.9456 2.84044 51.8716 3.26184 51.7589 3.65224C51.65 4.04265 51.4831 4.38657 51.2659 4.68014C51.0487 4.9737 50.7579 5.20142 50.4051 5.36717C50.0524 5.53292 49.6067 5.61345 49.0759 5.61265L47.5532 5.61034L47.5377 5.60645Z" fill="#EE3B23"/>
<path d="M63.8181 5.62474L63.819 4.6502L64.129 4.65066C64.4041 4.65108 64.5399 4.44632 64.5402 4.04026L64.5428 1.1437L63.8415 1.14263L63.8423 0.175822L66.6437 0.180065C67.7132 0.181685 68.2473 0.770316 68.2463 1.94983L68.2431 5.62758L67.1465 5.62592L67.1496 2.09125C67.1499 1.76254 67.092 1.52268 66.9759 1.37168C66.8598 1.22068 66.6855 1.14307 66.4453 1.14271L65.6316 1.14148L65.629 4.09219C65.6285 4.60653 65.5313 4.99311 65.3412 5.24419C65.1511 5.49527 64.8449 5.62243 64.4226 5.62179L63.8104 5.62086L63.8181 5.62474Z" fill="#EE3B23"/>
<path d="M71.7838 0.189592C72.8533 0.191211 73.3875 0.779862 73.3865 1.95941L73.3832 5.63729L72.2866 5.63563L72.2898 2.10084C72.29 1.77212 72.2321 1.53225 72.1121 1.38124C71.9922 1.23023 71.8179 1.15262 71.5892 1.15227L70.5314 1.15067L70.5275 5.62909L69.4309 5.62743L69.4357 0.186035L71.78 0.189586L71.7838 0.189592Z" fill="#EE3B23"/>
<path d="M74.4067 3.69605L74.4098 0.191656L75.5224 0.193341L75.5202 2.71527L74.9611 3.69689L74.4029 3.69605L74.4067 3.69605Z" fill="#EE3B23"/>
<path d="M76.3103 5.6389L76.3112 4.66436L76.6211 4.66483C76.8963 4.66524 77.0321 4.46048 77.0324 4.05442L77.035 1.15786L76.3336 1.15679L76.3345 0.189982L79.1359 0.194225C80.2053 0.195845 80.7395 0.784476 80.7385 1.96399L80.7352 5.64174L79.6387 5.64008L79.6418 2.10541C79.6421 1.7767 79.5842 1.53684 79.4681 1.38584C79.352 1.23484 79.1777 1.15723 78.9375 1.15687L78.1238 1.15564L78.1212 4.10635C78.1207 4.62069 78.0235 5.00727 77.8334 5.25835C77.6433 5.50943 77.3371 5.63659 76.9148 5.63595L76.3026 5.63502L76.3103 5.6389Z" fill="#EE3B23"/>
<path d="M81.7217 5.64504L81.7225 4.67047L83.5747 4.67328C83.9157 4.67379 84.1754 4.5311 84.35 4.25291C84.5285 3.97087 84.6141 3.53398 84.6147 2.93841C84.6152 2.34284 84.5226 1.89409 84.3407 1.60376C84.1589 1.31344 83.88 1.16992 83.5119 1.16936L82.7641 1.16823L82.7636 1.68646C82.7633 2.04612 82.7979 2.28981 82.8676 2.42528C82.9372 2.56074 83.0573 2.62667 83.2278 2.62692C83.2626 2.62698 83.3014 2.62704 83.3401 2.62323C83.3789 2.62329 83.4137 2.61947 83.4447 2.61952L83.4439 3.58636C83.3238 3.60551 83.192 3.61304 83.0525 3.61283C82.5294 3.61204 82.1692 3.4568 81.9719 3.14712C81.7745 2.83743 81.6742 2.37706 81.6747 1.76215L81.6761 0.203613L83.5631 0.206471C84.2373 0.207492 84.7719 0.44421 85.1589 0.916613C85.546 1.38902 85.743 2.05837 85.7423 2.92465C85.7418 3.45448 85.6639 3.92231 85.5085 4.33201C85.3532 4.74172 85.1165 5.06622 84.7947 5.30164C84.4729 5.53706 84.0737 5.65634 83.5932 5.65561L81.7139 5.65277L81.7217 5.64504Z" fill="#EE3B23"/>
<path d="M97.6458 5.66283L97.6467 4.68828L97.9567 4.68875C98.2318 4.68917 98.3676 4.48441 98.3679 4.07835L98.3705 1.18178L97.6691 1.18072L97.67 0.213908L100.471 0.218151C101.541 0.219771 102.075 0.808402 102.074 1.98791L102.071 5.66566L100.974 5.664L100.977 2.12934C100.978 1.80062 100.92 1.56077 100.804 1.40977C100.687 1.25877 100.513 1.18116 100.273 1.1808L99.4593 1.17956L99.4567 4.13027C99.4562 4.64461 99.359 5.03119 99.1689 5.28228C98.9788 5.53336 98.6726 5.66052 98.2503 5.65988L97.6381 5.65895L97.6458 5.66283Z" fill="#EE3B23"/>
<path d="M102.825 5.66901L102.826 4.69441L104.178 4.69645C104.531 4.69699 104.798 4.5543 104.98 4.27611C105.163 3.99793 105.256 3.55331 105.257 2.94998C105.257 2.34666 105.165 1.91336 104.975 1.62301C104.785 1.33266 104.514 1.18915 104.154 1.1886L102.833 1.1866L102.833 0.219732L104.213 0.221822C104.887 0.222843 105.422 0.459569 105.809 0.931989C106.196 1.40441 106.393 2.07378 106.392 2.9401C106.392 3.47381 106.314 3.94553 106.158 4.35525C106.003 4.76497 105.766 5.08561 105.445 5.32104C105.123 5.55647 104.72 5.67188 104.227 5.67114L102.832 5.66902L102.825 5.66901Z" fill="#EE3B23"/>
<path d="M107.365 5.67514L107.369 0.22876L108.467 0.230421L108.462 5.6768L107.365 5.67514Z" fill="#EE3B23"/>
<path d="M111.708 5.6799L111.711 2.14504C111.711 1.8163 111.653 1.57643 111.537 1.42542C111.421 1.27442 111.247 1.1968 111.006 1.19644L109.181 1.19367L109.182 0.226807L111.197 0.229858C112.267 0.231478 112.801 0.820143 112.8 1.99972L112.797 5.67769L111.7 5.67602L111.708 5.6799Z" fill="#EE3B23"/>
<path d="M113.531 5.68067L113.532 4.70612L114.582 4.70771L113.892 0.236097L114.989 0.237757L115.644 4.58943C115.993 4.47007 116.225 4.22679 116.354 3.86732C116.478 3.50786 116.567 2.99364 116.622 2.33242L116.799 0.236631L117.895 0.238291L117.719 2.46171C117.687 2.87932 117.633 3.28144 117.547 3.66803C117.462 4.05463 117.33 4.39862 117.136 4.69997C116.945 5.0052 116.67 5.24455 116.317 5.41804C115.965 5.5954 115.507 5.67979 114.942 5.67894L113.535 5.67681L113.531 5.68067Z" fill="#EE3B23"/>
<path d="M118.385 5.68627L118.386 4.71172L118.696 4.71219C118.971 4.71261 119.107 4.50785 119.107 4.10179L119.109 1.20522L118.408 1.20416L118.409 0.237346L121.21 0.241589C122.28 0.243208 122.814 0.831839 122.813 2.01135L122.81 5.6891L121.713 5.68744L121.716 2.15278C121.717 1.82406 121.659 1.5842 121.543 1.4332C121.426 1.28221 121.252 1.2046 121.012 1.20423L120.198 1.203L120.196 4.15371C120.195 4.66805 120.098 5.05463 119.908 5.30571C119.718 5.5568 119.412 5.68395 118.989 5.68331L118.377 5.68239L118.385 5.68627Z" fill="#EE3B23"/>
</svg>
