<?xml version="1.0" encoding="UTF-8"?>
<svg id="uuid-056a6cd4-a01c-43ec-9eac-056e7b67e458" data-name="Layer 2" xmlns="http://www.w3.org/2000/svg" viewBox="0 0 386.48 78.88">
  <defs>
    <style>
      .uuid-b6dfcfd8-2048-42a6-814c-4d5ebb17f9f4 {
        fill: #fff;
      }
    </style>
  </defs>
  <g id="uuid-9f9ea67f-0ef1-466a-aec5-d3caa740bf8e" data-name="Layer 6">
    <g>
      <path class="uuid-b6dfcfd8-2048-42a6-814c-4d5ebb17f9f4" d="m12,30.4v-15.52c0-1.44-.26-2.49-.78-3.16-.52-.67-1.29-1-2.3-1H0v-4.24h9.76c4.69,0,7.04,2.59,7.04,7.76v16.16h-4.8Zm-12,0v-14.08h4.8v14.08H0Z"/>
      <path class="uuid-b6dfcfd8-2048-42a6-814c-4d5ebb17f9f4" d="m22.4,30.4l-2.16-23.92h4.76l1,11,.08-.04c.72-.24,1.27-.56,1.66-.96s.67-.97.86-1.72c.19-.75.33-1.77.44-3.08l.44-5.2h4.8l-.48,5.6c-.16,1.81-.46,3.31-.9,4.5-.44,1.19-1.13,2.16-2.08,2.92-.95.76-2.26,1.41-3.94,1.94l-.48.16.4,4.52h1.76c2.05,0,3.65-.35,4.8-1.04,1.15-.69,1.99-1.81,2.54-3.34.55-1.53.93-3.55,1.14-6.06l.72-9.2h4.8l-.76,9.76c-.16,1.97-.48,3.82-.96,5.54-.48,1.72-1.2,3.23-2.16,4.52-.96,1.29-2.22,2.3-3.78,3.02-1.56.72-3.5,1.08-5.82,1.08h-6.68Z"/>
      <path class="uuid-b6dfcfd8-2048-42a6-814c-4d5ebb17f9f4" d="m53.12,30.4l5.4-19.68h-12.68v-4.24h17.68v3.24l-5.52,20.68h-4.88Zm-7.28,9.6V15.68h4.84v24.32h-4.84Z"/>
      <path class="uuid-b6dfcfd8-2048-42a6-814c-4d5ebb17f9f4" d="m65.2,30.4v-4.28h9.4v-11.2c0-1.52-.27-2.6-.8-3.24-.53-.64-1.32-.96-2.36-.96h-6.24v-4.24h7.16c2.29,0,4.04.64,5.24,1.92s1.8,3.24,1.8,5.88v11.84h2.8v4.28h-17Z"/>
      <path class="uuid-b6dfcfd8-2048-42a6-814c-4d5ebb17f9f4" d="m83.4,30.4v-4.28h9.4v-11.2c0-1.52-.27-2.6-.8-3.24-.53-.64-1.32-.96-2.36-.96h-6.24v-4.24h7.16c2.29,0,4.04.64,5.24,1.92s1.8,3.24,1.8,5.88v11.84h2.8v4.28h-17Z"/>
      <path class="uuid-b6dfcfd8-2048-42a6-814c-4d5ebb17f9f4" d="m112.68,40V13.36c0-.88-.14-1.54-.42-1.98-.28-.44-.77-.66-1.46-.66h-1.32v-4.24h2.92c3.41,0,5.12,2.11,5.12,6.32v27.2h-4.84Z"/>
      <path class="uuid-b6dfcfd8-2048-42a6-814c-4d5ebb17f9f4" d="m122.72,30.4V6.48h4.8v23.92h-4.8Z"/>
      <path class="uuid-b6dfcfd8-2048-42a6-814c-4d5ebb17f9f4" d="m132.04,30.4v-4.28h8.12c1.49,0,2.63-.62,3.4-1.86.77-1.24,1.16-3.17,1.16-5.78s-.4-4.59-1.2-5.86c-.8-1.27-2.01-1.9-3.64-1.9h-3.28v2.28c0,1.57.15,2.65.46,3.24.31.59.83.88,1.58.88.16,0,.33,0,.5-.02.17-.01.33-.02.46-.02v4.24c-.53.08-1.11.12-1.72.12-2.29,0-3.87-.68-4.74-2.04-.87-1.36-1.3-3.39-1.3-6.08v-6.84h8.28c2.96,0,5.29,1.03,7,3.1,1.71,2.07,2.56,5.01,2.56,8.82,0,2.32-.34,4.38-1.02,6.18-.68,1.8-1.72,3.22-3.12,4.26-1.4,1.04-3.15,1.56-5.26,1.56h-8.24Z"/>
      <path class="uuid-b6dfcfd8-2048-42a6-814c-4d5ebb17f9f4" d="m156.04,6.48h11.12v3.24l-6.44,20.68h-4.88l6.2-19.68h-10.8V0h4.8v6.48Z"/>
      <path class="uuid-b6dfcfd8-2048-42a6-814c-4d5ebb17f9f4" d="m179.44,30.88c-2.24,0-4.07-.56-5.48-1.68-1.41-1.12-2.45-2.63-3.1-4.52-.65-1.89-.98-4-.98-6.32V6.48h4.84v11.92c0,2.88.39,4.99,1.16,6.34.77,1.35,1.96,2.02,3.56,2.02,1.81,0,3.03-.78,3.66-2.34.63-1.56.94-3.77.94-6.62,0-2.43-.19-4.31-.58-5.64-.39-1.33-1.19-2-2.42-2-.4,0-.86.05-1.38.16-.52.11-.99.27-1.42.48v-4.12c.43-.13.97-.28,1.62-.44.65-.16,1.37-.24,2.14-.24,1.71,0,3.07.45,4.08,1.36,1.01.91,1.73,2.21,2.16,3.9.43,1.69.64,3.71.64,6.06,0,4.43-.79,7.79-2.36,10.1-1.57,2.31-3.93,3.46-7.08,3.46Z"/>
      <path class="uuid-b6dfcfd8-2048-42a6-814c-4d5ebb17f9f4" d="m191.28,30.4v-4.28h9.4v-11.2c0-1.52-.27-2.6-.8-3.24-.53-.64-1.32-.96-2.36-.96h-6.24v-4.24h7.16c2.29,0,4.04.64,5.24,1.92s1.8,3.24,1.8,5.88v11.84h2.8v4.28h-17Z"/>
      <path class="uuid-b6dfcfd8-2048-42a6-814c-4d5ebb17f9f4" d="m219.2,21.88V6.48h4.88v11.08l-2.44,4.32h-2.44Z"/>
      <path class="uuid-b6dfcfd8-2048-42a6-814c-4d5ebb17f9f4" d="m227.56,30.4v-4.28h1.36c1.2,0,1.8-.89,1.8-2.68v-12.72h-3.08v-4.24h12.28c4.69,0,7.04,2.59,7.04,7.76v16.16h-4.8v-15.52c0-1.44-.25-2.49-.76-3.16-.51-.67-1.28-1-2.32-1h-3.56v12.96c0,2.27-.42,3.95-1.26,5.06-.84,1.11-2.18,1.66-4.02,1.66h-2.68Z"/>
      <path class="uuid-b6dfcfd8-2048-42a6-814c-4d5ebb17f9f4" d="m252.2,30.4V6.48h4.8v23.92h-4.8Z"/>
      <path class="uuid-b6dfcfd8-2048-42a6-814c-4d5ebb17f9f4" d="m261.52,30.4v-6.32c0-2.27.33-4.21.98-5.82.65-1.61,1.63-2.82,2.94-3.62l-4.44-8.16h5.28l5.92,11.36c.51-.59.85-1.34,1.04-2.26s.28-2.06.28-3.42v-5.68h4.76v5.68c0,2.29-.34,4.25-1.02,5.86s-1.69,2.82-3.02,3.62l4.8,8.76h-5.28l-6.24-11.88c-.45.59-.77,1.33-.96,2.22-.19.89-.28,2.01-.28,3.34v6.32h-4.76Z"/>
      <path class="uuid-b6dfcfd8-2048-42a6-814c-4d5ebb17f9f4" d="m291.24,30.4V6.48h4.8v23.92h-4.8Z"/>
      <path class="uuid-b6dfcfd8-2048-42a6-814c-4d5ebb17f9f4" d="m311.76,6.48c4.69,0,7.04,2.59,7.04,7.76v16.16h-4.8v-15.52c0-1.44-.26-2.49-.78-3.16-.52-.67-1.29-1-2.3-1h-4.64v19.68h-4.8V6.48h10.28Z"/>
      <path class="uuid-b6dfcfd8-2048-42a6-814c-4d5ebb17f9f4" d="m322.72,30.4v-4.28h1.36c1.2,0,1.8-.89,1.8-2.68v-12.72h-3.08v-4.24h12.28c4.69,0,7.04,2.59,7.04,7.76v16.16h-4.8v-15.52c0-1.44-.25-2.49-.76-3.16-.51-.67-1.28-1-2.32-1h-3.56v12.96c0,2.27-.42,3.95-1.26,5.06-.84,1.11-2.18,1.66-4.02,1.66h-2.68Z"/>
      <path class="uuid-b6dfcfd8-2048-42a6-814c-4d5ebb17f9f4" d="m346.44,30.4v-4.28h8.12c1.49,0,2.63-.62,3.4-1.86.77-1.24,1.16-3.17,1.16-5.78s-.4-4.59-1.2-5.86c-.8-1.27-2.01-1.9-3.64-1.9h-3.28v2.28c0,1.57.15,2.65.46,3.24.31.59.83.88,1.58.88.16,0,.33,0,.5-.02.17-.01.33-.02.46-.02v4.24c-.53.08-1.11.12-1.72.12-2.29,0-3.87-.68-4.74-2.04-.87-1.36-1.3-3.39-1.3-6.08v-6.84h8.28c2.96,0,5.29,1.03,7,3.1,1.71,2.07,2.56,5.01,2.56,8.82,0,2.32-.34,4.38-1.02,6.18-.68,1.8-1.72,3.22-3.12,4.26-1.4,1.04-3.15,1.56-5.26,1.56h-8.24Z"/>
      <path class="uuid-b6dfcfd8-2048-42a6-814c-4d5ebb17f9f4" d="m367.08,30.4v-4.28h1.36c1.2,0,1.8-.89,1.8-2.68v-12.72h-3.08v-4.24h12.28c4.69,0,7.04,2.59,7.04,7.76v16.16h-4.8v-15.52c0-1.44-.25-2.49-.76-3.16-.51-.67-1.28-1-2.32-1h-3.56v12.96c0,2.27-.42,3.95-1.26,5.06-.84,1.11-2.18,1.66-4.02,1.66h-2.68Z"/>
      <path class="uuid-b6dfcfd8-2048-42a6-814c-4d5ebb17f9f4" d="m50.38,78.4v-4.28h1.36c1.2,0,1.8-.89,1.8-2.68v-12.72h-3.08v-4.24h12.28c4.69,0,7.04,2.59,7.04,7.76v16.16h-4.8v-15.52c0-1.44-.25-2.49-.76-3.16-.51-.67-1.28-1-2.32-1h-3.56v12.96c0,2.27-.42,3.95-1.26,5.06-.84,1.11-2.18,1.66-4.02,1.66h-2.68Z"/>
      <path class="uuid-b6dfcfd8-2048-42a6-814c-4d5ebb17f9f4" d="m75.02,78.4v-23.92h4.8v23.92h-4.8Z"/>
      <path class="uuid-b6dfcfd8-2048-42a6-814c-4d5ebb17f9f4" d="m95.54,54.48c4.69,0,7.04,2.59,7.04,7.76v16.16h-4.8v-15.52c0-1.44-.26-2.49-.78-3.16-.52-.67-1.29-1-2.3-1h-4.64v19.68h-4.8v-23.92h10.28Z"/>
      <path class="uuid-b6dfcfd8-2048-42a6-814c-4d5ebb17f9f4" d="m107.82,78.4v-23.92h4.8v23.92h-4.8Z"/>
      <path class="uuid-b6dfcfd8-2048-42a6-814c-4d5ebb17f9f4" d="m116.42,78.4v-4.28h5.56v-12.76c0-.88-.14-1.54-.42-1.98-.28-.44-.77-.66-1.46-.66h-2.08v-4.24h3.68c3.39,0,5.08,2.11,5.08,6.32v17.6h-10.36Z"/>
      <path class="uuid-b6dfcfd8-2048-42a6-814c-4d5ebb17f9f4" d="m144.02,78.4v-15.52c0-1.44-.26-2.49-.78-3.16-.52-.67-1.29-1-2.3-1h-8.92v-4.24h9.76c4.69,0,7.04,2.59,7.04,7.76v16.16h-4.8Zm-12,0v-14.08h4.8v14.08h-4.8Z"/>
      <path class="uuid-b6dfcfd8-2048-42a6-814c-4d5ebb17f9f4" d="m161.86,69.88v-15.4h4.88v11.08l-2.44,4.32h-2.44Z"/>
      <path class="uuid-b6dfcfd8-2048-42a6-814c-4d5ebb17f9f4" d="m170.62,78.4v-6.32c0-2.27.33-4.21.98-5.82.65-1.61,1.63-2.82,2.94-3.62l-4.44-8.16h5.28l5.92,11.36c.51-.59.85-1.34,1.04-2.26s.28-2.06.28-3.42v-5.68h4.76v5.68c0,2.29-.34,4.25-1.02,5.86s-1.69,2.82-3.02,3.62l4.8,8.76h-5.28l-6.24-11.88c-.45.59-.77,1.33-.96,2.22-.19.89-.28,2.01-.28,3.34v6.32h-4.76Z"/>
      <path class="uuid-b6dfcfd8-2048-42a6-814c-4d5ebb17f9f4" d="m202.98,54.48h11.12v3.24l-6.44,20.68h-4.88l6.2-19.68h-10.8v-10.72h4.8v6.48Z"/>
      <path class="uuid-b6dfcfd8-2048-42a6-814c-4d5ebb17f9f4" d="m215.62,78.4v-4.28h4.6l-3.04-19.64h4.8l2.88,19.12c1.52-.53,2.55-1.59,3.1-3.18.55-1.59.94-3.83,1.18-6.74l.76-9.2h4.8l-.76,9.76c-.13,1.84-.38,3.61-.74,5.3-.36,1.69-.96,3.21-1.8,4.54-.84,1.33-2.03,2.39-3.58,3.16-1.55.77-3.56,1.16-6.04,1.16h-6.16Z"/>
      <path class="uuid-b6dfcfd8-2048-42a6-814c-4d5ebb17f9f4" d="m258.42,78.4v-15.52c0-1.44-.26-2.49-.78-3.16-.52-.67-1.29-1-2.3-1h-8.92v-4.24h9.76c4.69,0,7.04,2.59,7.04,7.76v16.16h-4.8Zm-12,0v-14.08h4.8v14.08h-4.8Z"/>
      <path class="uuid-b6dfcfd8-2048-42a6-814c-4d5ebb17f9f4" d="m278.74,54.48c4.69,0,7.04,2.59,7.04,7.76v16.16h-4.8v-15.52c0-1.44-.26-2.49-.78-3.16-.52-.67-1.29-1-2.3-1h-4.64v19.68h-4.8v-23.92h10.28Z"/>
      <path class="uuid-b6dfcfd8-2048-42a6-814c-4d5ebb17f9f4" d="m290.26,69.88v-15.4h4.88v11.08l-2.44,4.32h-2.44Z"/>
      <path class="uuid-b6dfcfd8-2048-42a6-814c-4d5ebb17f9f4" d="m302.58,54.48h11.12v3.24l-6.44,20.68h-4.88l6.2-19.68h-10.8v-10.72h4.8v6.48Z"/>
      <path class="uuid-b6dfcfd8-2048-42a6-814c-4d5ebb17f9f4" d="m326.22,78.88c-2.08,0-3.83-.53-5.24-1.58-1.41-1.05-2.49-2.5-3.22-4.34-.73-1.84-1.1-3.95-1.1-6.32,0-1.39.11-2.77.34-4.14.23-1.37.49-2.63.78-3.78h-2.32v-4.24h10.72c2.99,0,5.32,1.05,7,3.14,1.68,2.09,2.52,5.07,2.52,8.94,0,2.37-.35,4.49-1.04,6.34-.69,1.85-1.74,3.31-3.14,4.38-1.4,1.07-3.17,1.6-5.3,1.6Zm-.04-4.12c1.57,0,2.73-.69,3.48-2.08.75-1.39,1.12-3.41,1.12-6.08s-.39-4.71-1.18-5.98c-.79-1.27-1.99-1.9-3.62-1.9h-3.44c-.21.93-.43,2.07-.64,3.42-.21,1.35-.32,2.81-.32,4.38,0,5.49,1.53,8.24,4.6,8.24Z"/>
    </g>
  </g>
</svg>